<?xml version="1.0" encoding="utf-8"?>
<svg viewBox="0 0 500 500" xmlns="http://www.w3.org/2000/svg">
  <path class="st0" d="M 344.842 52.113 C 344.842 54.927 342.539 57.297 339.643 57.297 L 62.599 57.297 C 59.777 57.297 57.4 54.927 57.4 52.113 L 57.4 21.383 C 57.4 18.495 59.703 16.2 62.599 16.2 L 339.568 16.2 C 342.465 16.2 344.768 18.495 344.768 21.383 L 344.768 52.113 L 344.842 52.113 Z" style="fill: rgb(13, 27, 39);"/>
  <polygon class="st1" points="194.213 219.684 188.791 212.649 199.635 212.649 210.554 212.649 205.057 219.684 199.635 226.793" style="fill: rgb(229, 170, 65);"/>
  <polygon class="st1" points="194.213 72.625 188.791 65.516 199.635 65.516 210.554 65.516 205.057 72.625 199.635 79.659" style="fill: rgb(229, 170, 65);"/>
  <polygon class="st1" points="194.213 145.932 188.791 138.898 199.635 138.898 210.554 138.898 205.057 145.932 199.635 152.967" style="fill: rgb(229, 170, 65);"/>
  <polygon class="st1" points="194.213 331.2 188.791 324.166 199.635 324.166 210.554 324.166 205.057 331.2 199.635 338.235" style="fill: rgb(229, 170, 65);"/>
  <g transform="matrix(0.742744, 0, 0, 0.74048, 56.360157, 12.34951)" style="">
    <path class="st1" d="M82.2,33l3.9-8.2h4.3l-6.2,11.6V43h-4v-6.6L74,24.8h4.3L82.2,33z" style="fill: rgb(229, 170, 65);"/>
    <path class="st1" d="M107.6,34.3c0,1.8-0.3,3.4-1,4.7c-0.7,1.4-1.6,2.4-2.8,3.1c-1.2,0.7-2.6,1.1-4.2,1.1s-3-0.4-4.2-1.1 c-1.2-0.7-2.2-1.8-2.9-3.1c-0.7-1.3-1-2.9-1-4.6v-0.9c0-1.8,0.3-3.4,1-4.7c0.7-1.4,1.6-2.4,2.8-3.1c1.2-0.7,2.6-1.1,4.2-1.1 s3,0.4,4.2,1.1s2.2,1.8,2.8,3.1c0.7,1.4,1,2.9,1,4.7L107.6,34.3z M103.7,33.5c0-1.9-0.4-3.4-1.1-4.4s-1.7-1.5-3-1.5s-2.3,0.5-3,1.5 s-1.1,2.4-1.1,4.3v0.9c0,1.9,0.4,3.3,1.1,4.3s1.7,1.5,3.1,1.5c1.3,0,2.3-0.5,3-1.5s1.1-2.4,1.1-4.3L103.7,33.5z" style="fill: rgb(229, 170, 65);"/>
    <path class="st1" d="M124.8,24.8v12c0,2-0.6,3.6-1.9,4.7c-1.3,1.2-3.1,1.7-5.3,1.7c-2.2,0-4-0.6-5.3-1.7c-1.3-1.1-2-2.7-2-4.6V24.8 h3.9v12c0,1.2,0.3,2.1,0.9,2.6s1.4,0.8,2.5,0.8c2.2,0,3.3-1.1,3.3-3.3V24.8H124.8z" style="fill: rgb(229, 170, 65);"/>
    <path class="st1" d="M134.9,36.3h-3.1V43h-3.9V24.8h7c2.2,0,4,0.5,5.2,1.4c1.2,1,1.8,2.3,1.8,4.1c0,1.2-0.3,2.3-0.8,3.1 c-0.6,0.8-1.4,1.5-2.5,2l4.1,7.4V43h-4.2L134.9,36.3z M131.8,33.3h3.1c1,0,1.7-0.2,2.3-0.7c0.5-0.5,0.8-1.1,0.8-2s-0.3-1.5-0.8-2 s-1.3-0.7-2.3-0.7h-3.1V33.3z" style="fill: rgb(229, 170, 65);"/>
    <path class="st1" d="M166.3,36.9c-0.1,2-0.9,3.5-2.2,4.6c-1.4,1.1-3.1,1.7-5.3,1.7c-2.4,0-4.3-0.8-5.7-2.4 c-1.4-1.6-2.1-3.7-2.1-6.5v-1.1c0-1.8,0.3-3.3,1-4.6c0.6-1.3,1.6-2.4,2.7-3.1c1.2-0.7,2.6-1.1,4.1-1.1c2.2,0,3.9,0.6,5.3,1.7 s2.1,2.7,2.3,4.7h-3.9c-0.1-1.2-0.4-2-1-2.6c-0.6-0.5-1.5-0.8-2.7-0.8c-1.3,0-2.3,0.5-2.9,1.4c-0.6,0.9-1,2.3-1,4.2v1.4 c0,2,0.3,3.4,0.9,4.3c0.6,0.9,1.6,1.4,2.9,1.4c1.2,0,2.1-0.3,2.7-0.8c0.6-0.5,0.9-1.4,1-2.5L166.3,36.9z" style="fill: rgb(229, 170, 65);"/>
    <path class="st1" d="M184.4,34.2c0,1.8-0.3,3.4-1,4.7c-0.7,1.4-1.6,2.4-2.8,3.1c-1.2,0.7-2.6,1.1-4.2,1.1c-1.6,0-3-0.4-4.2-1.1 c-1.2-0.7-2.2-1.8-2.9-3.1s-1-2.9-1-4.6v-0.9c0-1.8,0.3-3.4,1-4.7c0.7-1.4,1.6-2.4,2.8-3.1s2.6-1.1,4.2-1.1c1.6,0,3,0.4,4.2,1.1 s2.2,1.8,2.8,3.1c0.7,1.4,1,2.9,1,4.7L184.4,34.2z M180.5,33.4c0-1.9-0.4-3.4-1.1-4.4c-0.7-1-1.7-1.5-3-1.5s-2.3,0.5-3,1.5 s-1.1,2.4-1.1,4.3v0.9c0,1.9,0.4,3.3,1.1,4.3c0.7,1,1.7,1.5,3.1,1.5c1.3,0,2.3-0.5,3-1.5s1.1-2.4,1.1-4.3L180.5,33.4z" style="fill: rgb(229, 170, 65);"/>
    <path class="st1" d="M202.6,42.9h-3.9l-7.6-12v12h-3.9V24.7h3.9l7.6,12v-12h3.9V42.9z" style="fill: rgb(229, 170, 65);"/>
    <path class="st1" d="M220.2,27.7h-5.8v15.2h-3.9V27.7h-5.7v-3h15.4V27.7z" style="fill: rgb(229, 170, 65);"/>
    <path class="st1" d="M233.1,39.1h-6.8l-1.3,3.8h-4.1l7-18.2h3.6l7.1,18.2h-4.1L233.1,39.1z M227.3,36.1h4.7l-2.4-6.8L227.3,36.1z" style="fill: rgb(229, 170, 65);"/>
    <path class="st1" d="M244.4,42.8h-3.9V24.6h3.9V42.8z" style="fill: rgb(229, 170, 65);"/>
    <path class="st1" d="M263.4,42.8h-3.9l-7.6-12v12H248V24.6h3.9l7.6,12v-12h3.9V42.8z" style="fill: rgb(229, 170, 65);"/>
    <path class="st1" d="M278.1,34.9h-7.5v4.9h8.8v3h-12.7V24.6h12.6v3h-8.7v4.3h7.5L278.1,34.9z" style="fill: rgb(229, 170, 65);"/>
    <path class="st1" d="M288.7,36.1h-3.1v6.7h-3.9V24.6h7c2.2,0,4,0.5,5.2,1.4c1.2,1,1.8,2.3,1.8,4.1c0,1.2-0.3,2.3-0.8,3.1 c-0.6,0.8-1.4,1.5-2.5,2l4.1,7.4v0.2h-4.2L288.7,36.1z M285.6,33.1h3.1c1,0,1.7-0.2,2.3-0.7c0.6-0.5,0.8-1.1,0.8-2s-0.3-1.5-0.8-2 s-1.3-0.7-2.3-0.7h-3.1V33.1z" style="fill: rgb(229, 170, 65);"/>
    <path class="st1" d="M308.5,38c0-0.7-0.3-1.3-0.8-1.6c-0.5-0.4-1.5-0.8-2.8-1.2s-2.4-0.8-3.2-1.2c-2.1-1.1-3.2-2.6-3.2-4.5 c0-1,0.3-1.9,0.9-2.6c0.6-0.8,1.4-1.4,2.5-1.8s2.3-0.7,3.6-0.7c1.3,0,2.6,0.2,3.6,0.7c1.1,0.5,1.9,1.1,2.5,2s0.9,1.8,0.9,2.9h-3.9 c0-0.8-0.3-1.5-0.8-1.9s-1.3-0.7-2.3-0.7s-1.7,0.2-2.2,0.6s-0.8,0.9-0.8,1.5s0.3,1.1,0.9,1.5s1.5,0.8,2.7,1.1 c2.2,0.6,3.8,1.4,4.8,2.4c1,0.9,1.5,2.1,1.5,3.6c0,1.6-0.6,2.8-1.8,3.7c-1.2,0.9-2.9,1.4-5,1.4c-1.5,0-2.8-0.3-4-0.8 s-2.1-1.2-2.7-2.1c-0.6-0.9-0.9-1.9-0.9-3.1h3.9c0,2,1.2,3,3.7,3c0.9,0,1.6-0.2,2.2-0.5C308.2,39.1,308.5,38.6,308.5,38z" style="fill: rgb(229, 170, 65);"/>
  </g>
  <path class="st2" d="M 191.837 437.459 C 191.762 437.459 191.762 437.459 191.762 437.385 C 191.762 437.311 191.762 437.311 191.837 437.311" style="fill: rgb(255, 255, 255);"/>
  <path class="st0" d="M 344.842 126.161 C 344.842 129.049 342.539 131.345 339.643 131.345 L 62.599 131.345 C 59.777 131.345 57.4 129.049 57.4 126.161 L 57.4 93.58 C 57.4 90.766 59.777 88.397 62.599 88.397 L 339.568 88.397 C 342.465 88.397 344.768 90.766 344.768 93.58 L 344.768 126.161 L 344.842 126.161 Z" style="fill: rgb(13, 27, 39);"/>
  <g transform="matrix(0.742744, 0, 0, 0.74048, 56.360157, 12.34951)" style="">
    <path class="st1" d="M29.7,124.1l3.3-6.8h3.5l-5.2,9.7v5.5H28V127l-5.2-9.7h3.6L29.7,124.1z" style="fill: rgb(229, 170, 65);"/>
    <path class="st1" d="M50.9,125.2c0,1.5-0.3,2.8-0.8,3.9c-0.5,1.1-1.3,2-2.4,2.6c-1,0.6-2.2,0.9-3.5,0.9s-2.5-0.3-3.5-0.9 c-1-0.6-1.8-1.5-2.4-2.6c-0.6-1.1-0.8-2.4-0.9-3.9v-0.7c0-1.5,0.3-2.8,0.8-3.9c0.6-1.1,1.3-2,2.4-2.6c1-0.6,2.2-0.9,3.5-0.9 s2.5,0.3,3.5,0.9s1.8,1.5,2.4,2.6c0.6,1.1,0.8,2.4,0.8,3.9v0.7L50.9,125.2z M47.6,124.5c0-1.6-0.3-2.8-0.9-3.6 c-0.6-0.8-1.4-1.2-2.5-1.2s-1.9,0.4-2.5,1.2c-0.6,0.8-0.9,2-0.9,3.6v0.7c0,1.6,0.3,2.8,0.9,3.6c0.6,0.9,1.4,1.3,2.6,1.3 c1.1,0,1.9-0.4,2.5-1.2s0.9-2,0.9-3.6L47.6,124.5L47.6,124.5z" style="fill: rgb(229, 170, 65);"/>
    <path class="st1" d="M65.1,117.2v10c0,1.7-0.5,3-1.6,3.9c-1.1,1-2.5,1.4-4.4,1.4c-1.8,0-3.3-0.5-4.4-1.4c-1.1-0.9-1.6-2.2-1.7-3.9 v-10.1h3.2v10c0,1,0.2,1.7,0.7,2.2s1.2,0.7,2,0.7c1.8,0,2.7-0.9,2.8-2.8v-10.1h3.4V117.2z" style="fill: rgb(229, 170, 65);"/>
    <path class="st1" d="M76.5,129.9h6.9v2.5H73.3v-15.2h3.2V129.9z" style="fill: rgb(229, 170, 65);"/>
    <path class="st1" d="M94.7,125.8h-6.2v4.1h7.3v2.5H85.3v-15.2h10.5v2.5h-7.3v3.6h6.2V125.8z" style="fill: rgb(229, 170, 65);"/>
    <path class="st1" d="M106.6,129.3h-5.7l-1.1,3.1h-3.4l5.9-15.2h3l5.9,15.2h-3.4L106.6,129.3z M101.8,126.7h3.9l-2-5.7L101.8,126.7z " style="fill: rgb(229, 170, 65);"/>
    <path class="st1" d="M120.8,128.4c0-0.6-0.2-1-0.6-1.4c-0.4-0.3-1.2-0.7-2.3-1c-1.1-0.4-2-0.7-2.7-1c-1.8-0.9-2.7-2.2-2.7-3.8 c0-0.8,0.2-1.6,0.7-2.2s1.2-1.1,2.1-1.5s1.9-0.5,3-0.5s2.1,0.2,3,0.6s1.6,0.9,2,1.7c0.5,0.7,0.7,1.5,0.7,2.4h-3.2 c0-0.7-0.2-1.2-0.7-1.6s-1.1-0.6-1.9-0.6s-1.4,0.2-1.8,0.5s-0.7,0.7-0.7,1.3c0,0.5,0.3,0.9,0.8,1.2c0.5,0.3,1.3,0.6,2.3,0.9 c1.8,0.5,3.2,1.2,4,2s1.3,1.8,1.3,3c0,1.3-0.5,2.3-1.5,3.1c-1,0.7-2.4,1.1-4.2,1.1c-1.2,0-2.3-0.2-3.3-0.6c-1-0.4-1.8-1-2.3-1.8 c-0.5-0.7-0.8-1.6-0.8-2.6h3.3c0,1.7,1,2.5,3.1,2.5c0.8,0,1.4-0.2,1.8-0.5C120.6,129.4,120.8,129,120.8,128.4z" style="fill: rgb(229, 170, 65);"/>
    <path class="st1" d="M135.7,125.8h-6.2v4.1h7.3v2.5h-10.5v-15.2h10.5v2.5h-7.3v3.6h6.2V125.8z" style="fill: rgb(229, 170, 65);"/>
    <path class="st1" d="M156,119.8h-4.8v12.7H148v-12.7h-4.8v-2.5H156V119.8z" style="fill: rgb(229, 170, 65);"/>
    <path class="st1" d="M170.7,132.4h-3.2v-6.5h-6.3v6.5H158v-15.2h3.2v6.2h6.3v-6.2h3.2V132.4z" style="fill: rgb(229, 170, 65);"/>
    <path class="st1" d="M183,125.8h-6.2v4.1h7.3v2.5h-10.5v-15.2H184v2.5h-7.3v3.6h6.2v2.5C182.9,125.8,183,125.8,183,125.8z" style="fill: rgb(229, 170, 65);"/>
    <path class="st1" d="M190.2,117.2l4,11l4-11h4.3v15.2h-3.3v-4.2l0.3-7.2l-4.2,11.3h-2.2l-4.2-11.3l0.3,7.2v4.2H186v-15.2H190.2z" style="fill: rgb(229, 170, 65);"/>
    <path class="st1" d="M222.7,119.8h-4.8v12.7h-3.2v-12.7h-4.8v-2.5h12.8V119.8z" style="fill: rgb(229, 170, 65);"/>
    <path class="st1" d="M237.5,125.2c0,1.5-0.3,2.8-0.8,3.9c-0.5,1.1-1.3,2-2.4,2.6c-1,0.6-2.2,0.9-3.5,0.9s-2.5-0.3-3.5-0.9 c-1-0.6-1.8-1.5-2.4-2.6c-0.6-1.1-0.8-2.4-0.9-3.9v-0.7c0-1.5,0.3-2.8,0.8-3.9c0.6-1.1,1.3-2,2.4-2.6c1-0.6,2.2-0.9,3.5-0.9 s2.5,0.3,3.5,0.9s1.8,1.5,2.4,2.6c0.6,1.1,0.8,2.4,0.8,3.9L237.5,125.2L237.5,125.2z M234.2,124.5c0-1.6-0.3-2.8-0.9-3.6 c-0.6-0.8-1.4-1.2-2.5-1.2s-1.9,0.4-2.5,1.2c-0.6,0.8-0.9,2-0.9,3.6v0.7c0,1.6,0.3,2.8,0.9,3.6c0.6,0.9,1.4,1.3,2.5,1.3 s1.9-0.4,2.5-1.2s0.9-2,0.9-3.6V124.5z" style="fill: rgb(229, 170, 65);"/>
    <text style="fill: rgb(229, 170, 65); font-family: Arial, sans-serif; font-size: 28px; font-weight: 700; white-space: pre;" transform="matrix(0.838694, 0, 0, 0.773607, 34.326454, 28.137802)" x="250" y="136">SEAGATE</text>
  </g>
  <path class="st0" d="M 344.842 199.099 C 344.842 201.986 342.539 204.282 339.643 204.282 L 62.599 204.282 C 59.777 204.282 57.4 201.986 57.4 199.099 L 57.4 166.517 C 57.4 163.704 59.777 161.334 62.599 161.334 L 339.568 161.334 C 342.465 161.334 344.768 163.704 344.768 166.517 L 344.768 199.099 L 344.842 199.099 Z" style="fill: rgb(13, 27, 39);"/>
  <g transform="matrix(0.742744, 0, 0, 0.74048, 54.131927, 12.34951)" style="">
    <path class="st1" d="M177.9,231.8h-3v6.4h-3.7v-17.4h6.7c2.1,0,3.8,0.5,4.9,1.4c1.2,0.9,1.7,2.2,1.7,3.9c0,1.2-0.3,2.2-0.8,3 s-1.3,1.4-2.4,1.9l3.9,7.1v0.2h-4L177.9,231.8z M174.9,228.9h3c0.9,0,1.7-0.2,2.2-0.7s0.8-1.1,0.8-1.9c0-0.8-0.2-1.5-0.7-1.9 c-0.5-0.5-1.2-0.7-2.2-0.7h-3v5.2L174.9,228.9L174.9,228.9z" style="fill: rgb(229, 170, 65);"/>
    <path class="st1" d="M198.3,230.6h-7.1v4.7h8.4v2.9h-12.1v-17.4h12.1v2.9h-8.4v4.2h7.1V230.6z" style="fill: rgb(229, 170, 65);"/>
    <path class="st1" d="M216.4,238.2h-3.7l-7.2-11.5v11.5h-3.7v-17.4h3.7l7.2,11.5v-11.5h3.7V238.2z" style="fill: rgb(229, 170, 65);"/>
    <path class="st1" d="M233.2,223.7h-5.5v14.5H224v-14.5h-5.5v-2.9h14.7V223.7z" style="fill: rgb(229, 170, 65);"/>
    <path class="st1" d="M244.7,233.6c0-0.7-0.2-1.2-0.7-1.6c-0.5-0.4-1.4-0.7-2.7-1.1c-1.3-0.4-2.3-0.8-3.1-1.2 c-2-1.1-3.1-2.5-3.1-4.3c0-0.9,0.3-1.8,0.8-2.5s1.3-1.3,2.4-1.7c1-0.4,2.2-0.6,3.5-0.6s2.4,0.2,3.4,0.7s1.8,1.1,2.3,1.9 c0.6,0.8,0.8,1.8,0.8,2.8h-3.7c0-0.8-0.3-1.4-0.8-1.9c-0.5-0.4-1.3-0.7-2.2-0.7s-1.6,0.2-2.1,0.6c-0.5,0.4-0.8,0.9-0.8,1.5 s0.3,1,0.9,1.4c0.6,0.4,1.5,0.7,2.6,1.1c2.1,0.6,3.7,1.4,4.6,2.3s1.4,2,1.4,3.4c0,1.5-0.6,2.7-1.8,3.5c-1.2,0.9-2.8,1.3-4.8,1.3 c-1.4,0-2.7-0.2-3.8-0.7s-2-1.2-2.6-2c-0.6-0.9-0.9-1.8-0.9-3h3.7c0,1.9,1.2,2.9,3.6,2.9c0.9,0,1.6-0.2,2.1-0.5 C244.4,234.7,244.7,234.2,244.7,233.6z" style="fill: rgb(229, 170, 65);"/>
    <path class="st1" d="M270.8,223.7h-5.5v14.5h-3.7v-14.5h-5.5v-2.9h14.7V223.7z" style="fill: rgb(229, 170, 65);"/>
    <path class="st1" d="M287.6,238.2h-3.7v-7.5h-7.2v7.5H273v-17.4h3.7v7.1h7.2v-7.1h3.7L287.6,238.2L287.6,238.2z" style="fill: rgb(229, 170, 65);"/>
    <path class="st1" d="M301.7,230.6h-7.1v4.7h8.4v2.9h-12.1v-17.4H303v2.9h-8.4v4.2h7.1V230.6z" style="fill: rgb(229, 170, 65);"/>
    <path class="st1" d="M310,220.8l4.6,12.6l4.6-12.6h4.9v17.4h-3.7v-4.8l0.4-8.2l-4.9,13h-2.6l-4.9-13l0.4,8.2v4.8h-3.7v-17.4H310z" style="fill: rgb(229, 170, 65);"/>
    <path class="st1" d="M347.3,223.7h-5.5v14.5H338v-14.5h-5.5v-2.9h14.7L347.3,223.7L347.3,223.7z" style="fill: rgb(229, 170, 65);"/>
    <path class="st1" d="M364.2,229.9c0,1.7-0.3,3.2-0.9,4.5s-1.5,2.3-2.7,3s-2.5,1.1-4,1.1s-2.8-0.3-4-1s-2.1-1.7-2.7-3s-1-2.8-1-4.4 v-0.9c0-1.7,0.3-3.2,1-4.5c0.6-1.3,1.5-2.3,2.7-3s2.5-1,4-1s2.8,0.3,4,1s2.1,1.7,2.7,3s1,2.8,1,4.5v0.7L364.2,229.9L364.2,229.9z M360.5,229.1c0-1.8-0.3-3.2-1-4.2c-0.7-0.9-1.6-1.4-2.9-1.4c-1.2,0-2.2,0.5-2.9,1.4c-0.7,0.9-1,2.3-1,4.1v0.8c0,1.8,0.3,3.2,1,4.1 c0.7,1,1.7,1.5,2.9,1.5c1.2,0,2.2-0.5,2.9-1.4c0.7-0.9,1-2.3,1-4.1V229.1z" style="fill: rgb(229, 170, 65);"/>
    <path class="st1" d="M366.9,226.7c0-0.5,0.2-1,0.6-1.3s0.9-0.5,1.4-0.5c0.6,0,1.1,0.2,1.5,0.5s0.6,0.8,0.6,1.3s-0.2,1-0.6,1.3 s-0.9,0.5-1.5,0.5s-1.1-0.2-1.5-0.5C367.1,227.7,366.9,227.2,366.9,226.7z M366.9,236.5c0-0.6,0.2-1,0.6-1.3s0.9-0.5,1.4-0.5 c0.6,0,1.1,0.2,1.5,0.5s0.6,0.8,0.6,1.3s-0.2,1-0.6,1.3s-0.9,0.5-1.5,0.5s-1.1-0.2-1.5-0.5C367.1,237.5,366.9,237,366.9,236.5z" style="fill: rgb(229, 170, 65);"/>
  </g>
  <g transform="matrix(0.742744, 0, 0, 0.74048, 56.360157, 12.34951)" style="">
    <path class="st1" d="M92.6,143.8c0-0.9,0.1-1.7,0.4-2.6c0.2-0.8,0.6-1.6,1.1-2.2c0.5-0.7,1-1.1,1.5-1.4l0.2,0.7 c-0.6,0.4-1.1,1.1-1.5,2s-0.6,1.9-0.6,3v0.5c0,1.5,0.3,2.8,0.9,4c0.3,0.7,0.8,1.2,1.2,1.6l-0.2,0.7c-0.5-0.3-1.1-0.8-1.6-1.5 C93.1,147.3,92.6,145.7,92.6,143.8z" style="fill: rgb(229, 170, 65);"/>
    <path class="st1" d="M99.6,146.6c0.4,0,0.8-0.1,1.1-0.4c0.3-0.2,0.5-0.5,0.5-0.9h1.1c0,0.4-0.2,0.7-0.4,1c-0.2,0.3-0.6,0.6-1,0.8 s-0.8,0.3-1.3,0.3c-0.9,0-1.6-0.3-2.2-0.9c-0.5-0.6-0.8-1.4-0.8-2.4v-0.2c0-0.6,0.1-1.2,0.4-1.7c0.2-0.5,0.6-0.9,1-1.1 c0.4-0.3,1-0.4,1.6-0.4c0.7,0,1.4,0.2,1.9,0.6c0.5,0.4,0.8,1,0.8,1.7h-1.1c0-0.4-0.2-0.8-0.5-1c-0.3-0.3-0.7-0.4-1.1-0.4 c-0.6,0-1,0.2-1.3,0.6c-0.3,0.4-0.5,1-0.5,1.7v0.2c0,0.7,0.2,1.3,0.5,1.7C98.6,146.4,99,146.6,99.6,146.6z" style="fill: rgb(229, 170, 65);"/>
    <path class="st1" d="M103.2,144.1c0-0.6,0.1-1.2,0.4-1.7s0.6-0.9,1.1-1.2s1-0.4,1.6-0.4c0.9,0,1.6,0.3,2.2,0.9 c0.6,0.6,0.8,1.4,0.8,2.4v0.1c0,0.6-0.1,1.2-0.4,1.7c-0.2,0.5-0.6,0.9-1.1,1.2s-1,0.4-1.6,0.4c-0.9,0-1.6-0.3-2.2-0.9 C103.5,146,103.2,145.2,103.2,144.1L103.2,144.1z M104.3,144.2c0,0.7,0.2,1.3,0.5,1.7s0.8,0.6,1.4,0.6s1-0.2,1.4-0.7 c0.3-0.4,0.5-1,0.5-1.8c0-0.7-0.2-1.3-0.5-1.7s-0.8-0.7-1.4-0.7s-1,0.2-1.4,0.6C104.5,142.8,104.3,143.4,104.3,144.2z" style="fill: rgb(229, 170, 65);"/>
    <path class="st1" d="M113.9,141.9c-0.2,0-0.4,0-0.6,0c-0.7,0-1.2,0.3-1.5,0.9v4.5h-1.1v-6.4h1.1v0.7c0.4-0.6,0.9-0.9,1.6-0.9 c0.2,0,0.4,0,0.5,0.1V141.9z" style="fill: rgb(229, 170, 65);"/>
    <path class="st1" d="M117.6,147.5c-0.9,0-1.6-0.3-2.2-0.9c-0.6-0.6-0.8-1.3-0.8-2.3v-0.2c0-0.6,0.1-1.2,0.4-1.7s0.6-0.9,1.1-1.2 s0.9-0.4,1.5-0.4c0.9,0,1.5,0.3,2,0.8s0.7,1.3,0.7,2.4v0.5h-4.5c0,0.6,0.2,1.1,0.6,1.5s0.8,0.6,1.4,0.6c0.4,0,0.7-0.1,1-0.2 c0.3-0.2,0.5-0.4,0.7-0.6l0.7,0.5C119.6,147,118.8,147.5,117.6,147.5z M117.5,141.7c-0.5,0-0.8,0.2-1.2,0.5 c-0.3,0.3-0.5,0.8-0.6,1.4h3.3v-0.1c0-0.6-0.2-1-0.5-1.3C118.4,141.9,118,141.7,117.5,141.7z" style="fill: rgb(229, 170, 65);"/>
    <path class="st1" d="M130.3,144.2c0,1-0.2,1.8-0.7,2.4c-0.5,0.6-1.1,0.9-1.9,0.9c-0.8,0-1.5-0.3-1.9-0.9l-0.1,0.7h-1v-9.1h1.1v3.4 c0.5-0.5,1.1-0.8,1.9-0.8c0.8,0,1.4,0.3,1.9,0.9S130.3,143.1,130.3,144.2L130.3,144.2z M129.1,144.1c0-0.7-0.1-1.3-0.4-1.7 s-0.7-0.6-1.3-0.6c-0.7,0-1.3,0.3-1.6,1v2.8c0.3,0.7,0.9,1,1.6,1c0.5,0,1-0.2,1.3-0.6C129,145.5,129.1,144.9,129.1,144.1z" style="fill: rgb(229, 170, 65);"/>
    <path class="st1" d="M135.8,146.7c-0.4,0.5-1.1,0.8-1.9,0.8c-0.7,0-1.2-0.2-1.6-0.6c-0.4-0.4-0.6-1-0.6-1.8v-4.2h1.1v4.1 c0,1,0.4,1.5,1.2,1.5c0.9,0,1.4-0.3,1.7-0.9v-4.7h1.1v6.4h-1.1L135.8,146.7z" style="fill: rgb(229, 170, 65);"/>
    <path class="st1" d="M142.5,145.6c0-0.3-0.1-0.5-0.3-0.7s-0.6-0.3-1.2-0.4c-0.6-0.1-1-0.3-1.4-0.4c-0.3-0.2-0.6-0.4-0.7-0.6 c-0.2-0.2-0.2-0.5-0.2-0.8c0-0.5,0.2-1,0.7-1.3c0.5-0.4,1-0.5,1.8-0.5s1.4,0.2,1.8,0.6c0.5,0.4,0.7,0.9,0.7,1.4h-1.1 c0-0.3-0.1-0.6-0.4-0.8c-0.3-0.2-0.6-0.3-1-0.3s-0.7,0.1-1,0.3c-0.2,0.2-0.3,0.4-0.3,0.7s0.1,0.5,0.3,0.6s0.6,0.3,1.2,0.4 c0.6,0.1,1,0.3,1.4,0.4s0.6,0.4,0.8,0.6c0.2,0.2,0.3,0.5,0.3,0.9c0,0.6-0.2,1-0.7,1.4c-0.5,0.3-1.1,0.5-1.8,0.5 c-0.5,0-1-0.1-1.4-0.3s-0.7-0.4-1-0.8c-0.2-0.3-0.3-0.7-0.3-1.1h1.1c0,0.4,0.2,0.7,0.5,0.9s0.7,0.3,1.1,0.3c0.4,0,0.8-0.1,1-0.3 C142.3,146.1,142.5,145.9,142.5,145.6z" style="fill: rgb(229, 170, 65);"/>
    <path class="st1" d="M145.1,139.2c0-0.2,0.1-0.3,0.2-0.4c0.1-0.1,0.3-0.2,0.5-0.2s0.4,0.1,0.5,0.2c0.1,0.1,0.2,0.3,0.2,0.4 c0,0.2-0.1,0.3-0.2,0.4c-0.1,0.1-0.3,0.2-0.5,0.2s-0.4-0.1-0.5-0.2S145.1,139.4,145.1,139.2z M146.3,147.3h-1.1v-6.4h1.1V147.3z" style="fill: rgb(229, 170, 65);"/>
    <path class="st1" d="M149.2,140.9v0.8c0.5-0.6,1.2-0.9,2-0.9c1.4,0,2.1,0.8,2.1,2.3v4.2h-1.1v-4.2c0-0.5-0.1-0.8-0.3-1 s-0.5-0.3-1-0.3c-0.4,0-0.7,0.1-1,0.3s-0.5,0.4-0.6,0.7v4.6h-1.1V141h1L149.2,140.9L149.2,140.9z" style="fill: rgb(229, 170, 65);"/>
    <path class="st1" d="M157.8,147.5c-0.9,0-1.6-0.3-2.2-0.9c-0.6-0.6-0.8-1.3-0.8-2.3v-0.2c0-0.6,0.1-1.2,0.4-1.7 c0.3-0.5,0.6-0.9,1.1-1.2s0.9-0.4,1.5-0.4c0.9,0,1.5,0.3,2,0.8s0.7,1.3,0.7,2.4v0.5H156c0,0.6,0.2,1.1,0.6,1.5 c0.4,0.4,0.8,0.6,1.4,0.6c0.4,0,0.7-0.1,1-0.2c0.3-0.2,0.5-0.4,0.7-0.6l0.7,0.5C159.7,147,158.9,147.5,157.8,147.5z M157.6,141.7 c-0.5,0-0.8,0.2-1.2,0.5c-0.3,0.3-0.5,0.8-0.6,1.4h3.3v-0.1c0-0.6-0.2-1-0.5-1.3C158.5,141.9,158.1,141.7,157.6,141.7z" style="fill: rgb(229, 170, 65);"/>
    <path class="st1" d="M165.5,145.6c0-0.3-0.1-0.5-0.3-0.7s-0.6-0.3-1.2-0.4c-0.6-0.1-1-0.3-1.4-0.4c-0.3-0.2-0.6-0.4-0.7-0.6 c-0.2-0.2-0.2-0.5-0.2-0.8c0-0.5,0.2-1,0.7-1.3c0.5-0.4,1-0.5,1.8-0.5s1.4,0.2,1.8,0.6c0.5,0.4,0.7,0.9,0.7,1.4h-1.1 c0-0.3-0.1-0.6-0.4-0.8c-0.3-0.2-0.6-0.3-1-0.3s-0.7,0.1-1,0.3s-0.3,0.4-0.3,0.7s0.1,0.5,0.3,0.6s0.6,0.3,1.2,0.4 c0.6,0.1,1,0.3,1.4,0.4c0.4,0.2,0.6,0.4,0.8,0.6c0.2,0.2,0.3,0.5,0.3,0.9c0,0.6-0.2,1-0.7,1.4c-0.5,0.3-1.1,0.5-1.8,0.5 c-0.5,0-1-0.1-1.4-0.3s-0.7-0.4-1-0.8c-0.2-0.3-0.3-0.7-0.3-1.1h1.1c0,0.4,0.2,0.7,0.5,0.9s0.7,0.3,1.1,0.3c0.4,0,0.8-0.1,1-0.3 C165.4,146.1,165.5,145.9,165.5,145.6z" style="fill: rgb(229, 170, 65);"/>
    <path class="st1" d="M172,145.6c0-0.3-0.1-0.5-0.3-0.7s-0.6-0.3-1.2-0.4c-0.6-0.1-1-0.3-1.4-0.4c-0.3-0.2-0.6-0.4-0.7-0.6 c-0.2-0.2-0.2-0.5-0.2-0.8c0-0.5,0.2-1,0.7-1.3c0.5-0.4,1-0.5,1.8-0.5s1.4,0.2,1.8,0.6c0.5,0.4,0.7,0.9,0.7,1.4h-1.1 c0-0.3-0.1-0.6-0.4-0.8c-0.3-0.2-0.6-0.3-1-0.3s-0.7,0.1-1,0.3c-0.2,0.2-0.3,0.4-0.3,0.7s0.1,0.5,0.3,0.6s0.6,0.3,1.2,0.4 c0.6,0.1,1,0.3,1.4,0.4c0.4,0.2,0.6,0.4,0.8,0.6c0.2,0.2,0.3,0.5,0.3,0.9c0,0.6-0.2,1-0.7,1.4c-0.5,0.3-1.1,0.5-1.8,0.5 c-0.5,0-1-0.1-1.4-0.3s-0.7-0.4-1-0.8c-0.2-0.3-0.3-0.7-0.3-1.1h1.1c0,0.4,0.2,0.7,0.5,0.9s0.7,0.3,1.1,0.3c0.4,0,0.8-0.1,1-0.3 C171.9,146.1,172,145.9,172,145.6z" style="fill: rgb(229, 170, 65);"/>
    <path class="st1" d="M177.7,139.2c0-0.2,0.1-0.3,0.2-0.4c0.1-0.1,0.3-0.2,0.5-0.2s0.4,0.1,0.5,0.2c0.1,0.1,0.2,0.3,0.2,0.4 c0,0.2-0.1,0.3-0.2,0.4c-0.1,0.1-0.3,0.2-0.5,0.2s-0.4-0.1-0.5-0.2C177.8,139.6,177.7,139.4,177.7,139.2z M178.9,147.3h-1.1v-6.4 h1.1V147.3z" style="fill: rgb(229, 170, 65);"/>
    <path class="st1" d="M184.6,145.6c0-0.3-0.1-0.5-0.3-0.7s-0.6-0.3-1.2-0.4c-0.6-0.1-1-0.3-1.4-0.4c-0.3-0.2-0.6-0.4-0.7-0.6 c-0.2-0.2-0.2-0.5-0.2-0.8c0-0.5,0.2-1,0.7-1.3c0.5-0.4,1-0.5,1.8-0.5s1.4,0.2,1.8,0.6c0.5,0.4,0.7,0.9,0.7,1.4h-1.1 c0-0.3-0.1-0.6-0.4-0.8s-0.6-0.3-1-0.3s-0.7,0.1-1,0.3s-0.3,0.4-0.3,0.7s0.1,0.5,0.3,0.6s0.6,0.3,1.2,0.4c0.6,0.1,1,0.3,1.4,0.4 c0.4,0.2,0.6,0.4,0.8,0.6c0.2,0.2,0.3,0.5,0.3,0.9c0,0.6-0.2,1-0.7,1.4c-0.5,0.3-1.1,0.5-1.8,0.5c-0.5,0-1-0.1-1.4-0.3 s-0.7-0.4-1-0.8c-0.2-0.3-0.3-0.7-0.3-1.1h1.1c0,0.4,0.2,0.7,0.5,0.9s0.7,0.3,1.1,0.3c0.4,0,0.8-0.1,1-0.3 C184.5,146.1,184.6,145.9,184.6,145.6z" style="fill: rgb(229, 170, 65);"/>
    <path class="st1" d="M191.6,147.3h-1.1v-9.1h1.1V147.3z" style="fill: rgb(229, 170, 65);"/>
    <path class="st1" d="M196.1,147.5c-0.9,0-1.6-0.3-2.2-0.9c-0.6-0.6-0.8-1.3-0.8-2.3v-0.2c0-0.6,0.1-1.2,0.4-1.7 c0.3-0.5,0.6-0.9,1.1-1.2s0.9-0.4,1.5-0.4c0.9,0,1.5,0.3,2,0.8s0.7,1.3,0.7,2.4v0.5h-4.5c0,0.6,0.2,1.1,0.6,1.5 c0.4,0.4,0.8,0.6,1.4,0.6c0.4,0,0.7-0.1,1-0.2c0.3-0.2,0.5-0.4,0.7-0.6l0.7,0.5C198.1,147,197.2,147.5,196.1,147.5z M196,141.7 c-0.5,0-0.8,0.2-1.2,0.5c-0.3,0.3-0.5,0.8-0.6,1.4h3.3v-0.1c0-0.6-0.2-1-0.5-1.3C196.8,141.9,196.5,141.7,196,141.7z" style="fill: rgb(229, 170, 65);"/>
    <path class="st1" d="M204.1,147.3c-0.1-0.1-0.1-0.4-0.2-0.7c-0.5,0.5-1.2,0.8-1.9,0.8s-1.2-0.2-1.6-0.5c-0.4-0.4-0.6-0.8-0.6-1.4 c0-0.7,0.3-1.2,0.8-1.6c0.5-0.4,1.3-0.6,2.2-0.6h1.1v-0.5c0-0.4-0.1-0.7-0.4-0.9c-0.2-0.2-0.6-0.3-1-0.3s-0.7,0.1-1,0.3 s-0.4,0.4-0.4,0.7H200c0-0.3,0.1-0.6,0.4-0.9c0.2-0.3,0.6-0.5,1-0.7s0.8-0.3,1.3-0.3c0.8,0,1.4,0.2,1.8,0.6 c0.4,0.4,0.7,0.9,0.7,1.5v2.9c0,0.6,0.1,1.1,0.2,1.4v0.1L204.1,147.3L204.1,147.3z M202.2,146.5c0.4,0,0.7-0.1,1-0.3 s0.5-0.4,0.7-0.7v-1.3H203c-1.4,0-2.1,0.4-2.1,1.2c0,0.3,0.1,0.6,0.4,0.8S201.9,146.5,202.2,146.5z" style="fill: rgb(229, 170, 65);"/>
    <path class="st1" d="M210.7,145.6c0-0.3-0.1-0.5-0.3-0.7s-0.6-0.3-1.2-0.4c-0.6-0.1-1-0.3-1.4-0.4c-0.3-0.2-0.6-0.4-0.7-0.6 c-0.2-0.2-0.2-0.5-0.2-0.8c0-0.5,0.2-1,0.7-1.3c0.5-0.4,1-0.5,1.8-0.5s1.4,0.2,1.8,0.6c0.5,0.4,0.7,0.9,0.7,1.4h-1.1 c0-0.3-0.1-0.6-0.4-0.8c-0.3-0.2-0.6-0.3-1-0.3s-0.7,0.1-1,0.3s-0.3,0.4-0.3,0.7s0.1,0.5,0.3,0.6s0.6,0.3,1.2,0.4 c0.6,0.1,1,0.3,1.4,0.4c0.4,0.2,0.6,0.4,0.8,0.6c0.2,0.2,0.3,0.5,0.3,0.9c0,0.6-0.2,1-0.7,1.4c-0.5,0.3-1.1,0.5-1.8,0.5 c-0.5,0-1-0.1-1.4-0.3s-0.7-0.4-1-0.8c-0.2-0.3-0.3-0.7-0.3-1.1h1.1c0,0.4,0.2,0.7,0.5,0.9s0.7,0.3,1.1,0.3c0.4,0,0.8-0.1,1-0.3 C210.6,146.1,210.7,145.9,210.7,145.6z" style="fill: rgb(229, 170, 65);"/>
    <path class="st1" d="M213.3,139.2c0-0.2,0.1-0.3,0.2-0.4c0.1-0.1,0.3-0.2,0.5-0.2s0.4,0.1,0.5,0.2c0.1,0.1,0.2,0.3,0.2,0.4 c0,0.2-0.1,0.3-0.2,0.4c-0.1,0.1-0.3,0.2-0.5,0.2s-0.4-0.1-0.5-0.2S213.3,139.4,213.3,139.2z M214.5,147.3h-1.1v-6.4h1.1V147.3z" style="fill: rgb(229, 170, 65);"/>
    <path class="st1" d="M217.4,140.9v0.8c0.5-0.6,1.2-0.9,2-0.9c1.4,0,2.1,0.8,2.1,2.3v4.2h-1.1v-4.2c0-0.5-0.1-0.8-0.3-1 s-0.5-0.3-1-0.3c-0.4,0-0.7,0.1-1,0.3s-0.5,0.4-0.6,0.7v4.6h-1.1V141h1L217.4,140.9L217.4,140.9z" style="fill: rgb(229, 170, 65);"/>
    <path class="st1" d="M223,144.1c0-1,0.2-1.8,0.7-2.4c0.5-0.6,1.1-0.9,1.9-0.9c0.8,0,1.4,0.3,1.9,0.8l0.1-0.7h1v6.2 c0,0.8-0.3,1.5-0.8,2s-1.2,0.7-2,0.7c-0.5,0-0.9-0.1-1.4-0.3s-0.8-0.5-1-0.8l0.6-0.7c0.5,0.6,1.1,0.9,1.8,0.9c0.6,0,1-0.1,1.3-0.4 c0.3-0.3,0.5-0.7,0.5-1.3v-0.5c-0.5,0.5-1.1,0.8-1.9,0.8c-0.8,0-1.4-0.3-1.9-0.9C223.2,146,223,145.1,223,144.1z M224.1,144.2 c0,0.7,0.2,1.3,0.5,1.7s0.7,0.6,1.3,0.6c0.7,0,1.2-0.3,1.6-0.9v-2.9c-0.3-0.6-0.9-0.9-1.6-0.9c-0.6,0-1,0.2-1.3,0.6 C224.3,142.8,224.1,143.4,224.1,144.2z" style="fill: rgb(229, 170, 65);"/>
    <path class="st1" d="M234.9,139.4v1.5h1.2v0.8h-1.2v4c0,0.3,0.1,0.4,0.2,0.6c0.1,0.1,0.3,0.2,0.6,0.2c0.1,0,0.3,0,0.5-0.1v0.9 c-0.3,0.1-0.6,0.1-0.9,0.1c-0.5,0-0.9-0.1-1.1-0.4c-0.3-0.3-0.4-0.7-0.4-1.3v-4h-1.2v-0.8h1.2v-1.5H234.9z" style="fill: rgb(229, 170, 65);"/>
    <path class="st1" d="M237.2,144.1c0-0.6,0.1-1.2,0.4-1.7c0.3-0.5,0.6-0.9,1.1-1.2s1-0.4,1.6-0.4c0.9,0,1.6,0.3,2.2,0.9 c0.6,0.6,0.8,1.4,0.8,2.4v0.1c0,0.6-0.1,1.2-0.4,1.7c-0.2,0.5-0.6,0.9-1.1,1.2s-1,0.4-1.6,0.4c-0.9,0-1.6-0.3-2.2-0.9 C237.5,146,237.2,145.2,237.2,144.1L237.2,144.1z M238.3,144.2c0,0.7,0.2,1.3,0.5,1.7s0.8,0.6,1.4,0.6c0.6,0,1-0.2,1.4-0.7 c0.3-0.4,0.5-1,0.5-1.8c0-0.7-0.2-1.3-0.5-1.7s-0.8-0.7-1.4-0.7c-0.6,0-1,0.2-1.4,0.6C238.5,142.8,238.3,143.4,238.3,144.2z" style="fill: rgb(229, 170, 65);"/>
    <path class="st1" d="M247.8,139.2c0-0.2,0.1-0.3,0.2-0.4c0.1-0.1,0.3-0.2,0.5-0.2s0.4,0.1,0.5,0.2c0.1,0.1,0.2,0.3,0.2,0.4 c0,0.2-0.1,0.3-0.2,0.4c-0.1,0.1-0.3,0.2-0.5,0.2s-0.4-0.1-0.5-0.2C247.8,139.6,247.8,139.4,247.8,139.2z M249,147.3h-1.1v-6.4h1.1 V147.3z" style="fill: rgb(229, 170, 65);"/>
    <path class="st1" d="M251.9,140.9v0.8c0.5-0.6,1.2-0.9,2-0.9c1.4,0,2.1,0.8,2.1,2.3v4.2h-1.1v-4.2c0-0.5-0.1-0.8-0.3-1 s-0.5-0.3-1-0.3c-0.4,0-0.7,0.1-1,0.3s-0.5,0.4-0.6,0.7v4.6h-1.1V141h1L251.9,140.9L251.9,140.9z" style="fill: rgb(229, 170, 65);"/>
    <path class="st1" d="M257.4,144.1c0-1,0.2-1.8,0.7-2.4c0.5-0.6,1.1-0.9,1.9-0.9s1.4,0.3,1.8,0.8v-3.3h1.1v9.1h-1l-0.1-0.7 c-0.5,0.5-1.1,0.8-1.9,0.8s-1.4-0.3-1.9-0.9C257.7,145.9,257.4,145.1,257.4,144.1L257.4,144.1z M258.6,144.2c0,0.7,0.2,1.3,0.5,1.7 s0.7,0.6,1.3,0.6c0.7,0,1.2-0.3,1.6-0.9v-2.9c-0.3-0.6-0.9-0.9-1.6-0.9c-0.6,0-1,0.2-1.3,0.6C258.7,142.8,258.6,143.4,258.6,144.2z " style="fill: rgb(229, 170, 65);"/>
    <path class="st1" d="M268.9,146.7c-0.4,0.5-1.1,0.8-1.9,0.8c-0.7,0-1.2-0.2-1.6-0.6c-0.4-0.4-0.6-1-0.6-1.8v-4.2h1.1v4.1 c0,1,0.4,1.5,1.2,1.5c0.9,0,1.4-0.3,1.7-0.9v-4.7h1.1v6.4h-1.1L268.9,146.7z" style="fill: rgb(229, 170, 65);"/>
    <path class="st1" d="M275.6,145.6c0-0.3-0.1-0.5-0.3-0.7c-0.2-0.2-0.6-0.3-1.2-0.4c-0.6-0.1-1-0.3-1.4-0.4 c-0.3-0.2-0.6-0.4-0.7-0.6c-0.2-0.2-0.2-0.5-0.2-0.8c0-0.5,0.2-1,0.7-1.3c0.5-0.4,1-0.5,1.8-0.5s1.4,0.2,1.8,0.6 c0.5,0.4,0.7,0.9,0.7,1.4h-1.1c0-0.3-0.1-0.6-0.4-0.8s-0.6-0.3-1-0.3s-0.7,0.1-1,0.3c-0.2,0.2-0.3,0.4-0.3,0.7s0.1,0.5,0.3,0.6 c0.2,0.1,0.6,0.3,1.2,0.4c0.6,0.1,1,0.3,1.4,0.4c0.4,0.2,0.6,0.4,0.8,0.6c0.2,0.2,0.3,0.5,0.3,0.9c0,0.6-0.2,1-0.7,1.4 c-0.5,0.3-1.1,0.5-1.8,0.5c-0.5,0-1-0.1-1.4-0.3s-0.7-0.4-1-0.8c-0.2-0.3-0.3-0.7-0.3-1.1h1.1c0,0.4,0.2,0.7,0.5,0.9 s0.7,0.3,1.1,0.3s0.8-0.1,1-0.3C275.4,146.1,275.6,145.9,275.6,145.6z" style="fill: rgb(229, 170, 65);"/>
    <path class="st1" d="M279.7,139.4v1.5h1.2v0.8h-1.2v4c0,0.3,0.1,0.4,0.2,0.6c0.1,0.1,0.3,0.2,0.6,0.2c0.1,0,0.3,0,0.5-0.1v0.9 c-0.3,0.1-0.6,0.1-0.9,0.1c-0.5,0-0.9-0.1-1.1-0.4s-0.4-0.7-0.4-1.3v-4h-1.2v-0.8h1.2v-1.5H279.7z" style="fill: rgb(229, 170, 65);"/>
    <path class="st1" d="M285.5,141.9c-0.2,0-0.4,0-0.6,0c-0.7,0-1.2,0.3-1.5,0.9v4.5h-1.1v-6.4h1.1v0.7c0.4-0.6,0.9-0.9,1.6-0.9 c0.2,0,0.4,0,0.5,0.1V141.9z" style="fill: rgb(229, 170, 65);"/>
    <path class="st1" d="M288.7,145.7l1.5-4.8h1.2l-2.7,7.4c-0.4,1.1-1.1,1.6-2,1.6h-0.2l-0.4-0.1v-0.9h0.3c0.4,0,0.7-0.1,0.9-0.2 c0.2-0.1,0.4-0.4,0.5-0.8l0.3-0.7l-2.4-6.3h1.2L288.7,145.7z" style="fill: rgb(229, 170, 65);"/>
    <path class="st1" d="M295.1,143.9c0,0.9-0.1,1.7-0.4,2.5c-0.2,0.8-0.6,1.5-1.1,2.2s-1,1.2-1.5,1.5l-0.2-0.7 c0.6-0.5,1.1-1.2,1.5-2.2s0.6-2.1,0.6-3.3v-0.2c0-0.8-0.1-1.6-0.3-2.3c-0.2-0.7-0.4-1.3-0.7-1.9c-0.3-0.6-0.7-1-1.1-1.3l0.2-0.7 c0.5,0.3,1.1,0.8,1.5,1.4c0.5,0.7,0.9,1.4,1.1,2.2C294.9,142.1,295.1,143,295.1,143.9z" style="fill: rgb(229, 170, 65);"/>
  </g>
  <path class="st0" d="M 344.99 388.069 C 344.99 390.957 342.688 393.252 339.791 393.252 L 62.748 393.252 C 59.925 393.252 57.549 390.957 57.549 388.069 L 57.549 354.377 C 57.549 351.489 59.925 349.194 62.748 349.194 L 339.717 349.194 C 342.614 349.194 344.916 351.489 344.916 354.377 L 344.916 388.069 L 344.99 388.069 Z" style="fill: rgb(13, 27, 39);"/>
  <g transform="matrix(0.742744, 0, 0, 0.74048, 56.360157, 12.34951)" style="">
    <path class="st3" d="M376.3,57.3h-363C9.2,57.3,6,54,6,49.9V16.6c0-4.1,3.3-7.3,7.3-7.3h363c4.1,0,7.4,3.3,7.4,7.3V50 C383.7,54,380.4,57.3,376.3,57.3z M13.3,9.9c-3.7,0-6.7,3-6.7,6.7V50c0,3.7,3,6.7,6.7,6.7h363c3.7,0,6.7-3,6.7-6.7V16.6 c0-3.7-3-6.7-6.7-6.7L13.3,9.9z" style="fill: rgb(255, 221, 150);"/>
  </g>
  <g transform="matrix(0.742744, 0, 0, 0.74048, 56.360157, 12.34951)" style="">
    <path class="st3" d="M375.2,156.6H14.4c-4.1,0-7.3-3.3-7.3-7.3V115c0-4.1,3.3-7.4,7.3-7.4h360.7c4.1,0,7.4,3.3,7.4,7.4v34.3 C382.5,153.3,379.2,156.6,375.2,156.6z M14.4,108.3c-3.7,0-6.6,3-6.6,6.7v34.3c0,3.7,3,6.6,6.6,6.6h360.7c3.7,0,6.6-3,6.6-6.6V115 c0-3.7-3-6.7-6.6-6.7H14.4z" style="fill: rgb(255, 221, 150);"/>
  </g>
  <path class="st3" d="M 335.038 201.172 L 67.056 201.172 C 64.01 201.172 61.634 198.728 61.634 195.766 L 61.634 170.368 C 61.634 167.332 64.085 164.888 67.056 164.888 L 334.963 164.888 C 338.009 164.888 340.46 167.332 340.46 170.368 L 340.46 195.766 C 340.46 198.728 338.009 201.172 335.038 201.172 Z M 67.056 165.407 C 64.308 165.407 62.154 167.628 62.154 170.294 L 62.154 195.692 C 62.154 198.432 64.382 200.58 67.056 200.58 L 334.963 200.58 C 337.712 200.58 339.865 198.358 339.865 195.692 L 339.865 170.294 C 339.865 167.554 337.637 165.407 334.963 165.407 L 67.056 165.407 Z" style="fill: rgb(255, 221, 150);"/>
  <path class="st3" d="M 336.077 389.328 L 66.461 389.328 C 63.416 389.328 60.965 386.884 60.965 383.922 L 60.965 358.524 C 60.965 355.488 63.416 353.118 66.461 353.118 L 336.077 353.118 C 339.123 353.118 341.574 355.562 341.574 358.524 L 341.574 383.922 C 341.5 386.884 339.123 389.328 336.077 389.328 Z M 66.461 353.563 C 63.713 353.563 61.485 355.784 61.485 358.45 L 61.485 383.848 C 61.485 386.588 63.713 388.735 66.461 388.735 L 336.077 388.735 C 338.826 388.735 340.98 386.514 340.98 383.848 L 340.98 358.524 C 340.98 355.784 338.751 353.637 336.077 353.637 L 66.461 353.563 C 66.461 353.637 66.461 353.563 66.461 353.563 Z" style="fill: rgb(255, 221, 150);"/>
  <polygon class="st1" points="194.213 407.914 188.791 400.879 199.635 400.879 210.554 400.879 205.057 407.914 199.635 414.948" style="fill: rgb(229, 170, 65);"/>
  <path class="st0" d="M 344.842 462.413 C 344.842 465.301 342.539 467.597 339.643 467.597 L 62.599 467.597 C 59.777 467.597 57.4 465.301 57.4 462.413 L 57.4 428.721 C 57.4 425.908 59.777 423.538 62.599 423.538 L 339.568 423.538 C 342.465 423.538 344.768 425.908 344.768 428.721 L 344.768 462.413 L 344.842 462.413 Z" style="fill: rgb(13, 27, 39);"/>
  <path class="st3" d="M 336.226 463.746 L 66.61 463.746 C 63.565 463.746 61.188 461.303 61.188 458.341 L 61.188 432.942 C 61.188 429.906 63.639 427.463 66.61 427.463 L 336.226 427.463 C 339.271 427.463 341.722 429.906 341.722 432.942 L 341.722 458.341 C 341.648 461.303 339.197 463.746 336.226 463.746 Z M 66.61 427.981 C 63.862 427.981 61.708 430.202 61.708 432.868 L 61.708 458.267 C 61.708 461.006 63.936 463.154 66.61 463.154 L 336.226 463.154 C 338.974 463.154 341.128 460.932 341.128 458.267 L 341.128 432.868 C 341.128 430.128 338.9 427.981 336.226 427.981 L 66.61 427.981 Z" style="fill: rgb(255, 221, 150);"/>
  <g transform="matrix(0.742744, 0, 0, 0.74048, 56.360157, 12.34951)" style="">
    <g>
      <path class="st4" d="M252.8,374.5c1.7,0.8,3.3,1.7,4.9,2.5c0,0.1,0,0.2,0,0.2c-0.8,0.3-1.5,0.6-2.3,0.8c-2.4,0.6-4.8,1-7.2,1.7 c-2.9,0.8-5.9,1.6-8.7,2.7c-3,1.2-5.9,2.7-8.8,4.1c-1.6,0.8-3.2,1.7-4.8,2.6c-1.7,1-3.3,0.5-5-0.1c-2.1-0.7-4.2-1.5-6.3-2 c-3.5-0.8-7.1-1-10.7-0.8c-1.2,0-2.4,0.1-3.6,0c-0.4,0-0.9-0.2-1.2-0.5c-0.7-0.6-0.6-1.5,0.2-1.8c1-0.3,2.1-0.6,3.2-0.8 c3.9-1,7.9-2,11.8-3c3.4-0.9,6.8-1.8,10.2-2.7c0.1,0,0.3,0,0.4-0.1c0.4,0,0.8,0,0.9,0.5c0.1,0.6-0.2,0.8-0.6,1 c-0.8,0.3-1.5,0.7-2.3,1c-0.3,0.1-0.6,0.3-0.8,0.5c-0.8,0.6-0.9,1.4,0,1.8c0.7,0.4,1.6,0.6,2.4,0.7c2.8,0.3,5.5-0.4,8.1-1.2 c3.4-1.1,6.9-2,10.4-3c2.6-0.7,5.3-1.4,7.9-2.2C252,376.2,252.6,375.7,252.8,374.5z" style="fill: rgb(151, 9, 8);"/>
      <path class="st4" d="M212.9,398.5c-2.2,0-4.2-0.1-6.2,0c-0.9,0-1.7,0.3-2.5,0.6c-0.5,0.2-0.9,0.9-1.3,1.3c0,0.1,0.1,0.2,0.1,0.2 c0.2,0,0.5,0,0.7,0c2.8,0,5.6,0,8.4,0c0.6,0,0.8,0.1,0.7,0.8c0,0.5,0,1,0,1.5c-3.4,0-6.6,0-9.9,0c0.1,1.1,1,2,2.2,2.1 c2.2,0.1,4.5,0.2,6.7,0.2c0.3,0,0.9,0.1,0.9,0.2c0.1,0.6,0,1.3,0,1.9c0,0.1-0.3,0.2-0.4,0.2c-2.6,0-5.3,0.1-7.9,0 c-2.1-0.1-3.7-1.2-4.6-3.3c-0.9-2-0.7-3.9,0.5-5.7c0.9-1.4,2.2-2.3,3.8-2.3c2.9-0.1,5.7,0,8.7,0 C212.9,397.1,212.9,397.8,212.9,398.5z" style="fill: rgb(151, 9, 8);"/>
      <path class="st4" d="M257.1,396.3c0,0.8,0,1.4,0,2.2c-0.4,0-0.9,0-1.3,0c-2.1,0-4.1,0-6.2,0.2c-1.1,0.1-2,0.6-2.4,2 c0.2,0,0.4,0.1,0.6,0.1c2.9,0,5.7,0,8.6,0c0.5,0,0.8,0.1,0.7,0.8c0,0.5,0,1,0,1.5c-3.3,0-6.6,0-9.9,0c0.4,1.3,1.2,1.9,2.3,2 c1.5,0.2,2.9,0.2,4.4,0.2c1,0,2.1,0,3.2,0c0,0.7,0,1.3,0,1.9c0,0.1-0.3,0.4-0.5,0.4c-2.7,0-5.3,0.1-8,0c-4.1-0.2-6.4-4.9-4.3-8.6 c0.9-1.6,2.3-2.7,4.1-2.7C251.3,396.3,254.2,396.3,257.1,396.3z" style="fill: rgb(151, 9, 8);"/>
      <path class="st4" d="M224.4,403.2c1.4,1.5,2.7,2.9,4,4.3c0,0.1,0,0.1-0.1,0.2c-0.9,0-1.8,0-2.7,0c-0.2,0-0.4-0.2-0.5-0.4 c-1.1-1.2-2.2-2.4-3.3-3.6c-0.4-0.4-0.7-0.6-1.2-0.6c-0.6,0-1.2,0-1.9,0c0,1.5,0,3,0,4.5c-1.1,0-2.2,0-3.3,0c0-3.7,0-7.5,0-11.3 c0.2,0,0.4-0.1,0.6-0.1c3,0,5.9,0,8.9,0c0.5,0,1.1,0.1,1.6,0.3c1.3,0.6,2.1,1.9,1.9,3.3c-0.1,1.4-1.3,2.8-2.6,3 C225.5,403,225.1,403.1,224.4,403.2z M218.9,400.8c2,0,4,0,5.9,0c0.8,0,1.3-0.7,1.1-1.5c-0.2-0.6-0.7-0.7-1.2-0.7 c-1.8,0-3.6,0-5.5,0c-0.1,0-0.2,0.1-0.3,0.1C218.9,399.3,218.9,400,218.9,400.8z" style="fill: rgb(151, 9, 8);"/>
      <path class="st4" d="M234,407.6c-1.2,0-2.2,0-3.3,0c0-3.8,0-7.5,0-11.3c1.1,0,2.1,0,3.2,0c0,1.3,0,2.6,0,4.1 c0.6-0.4,1.1-0.7,1.6-1.1c1.2-0.9,2.4-1.8,3.6-2.6c0.4-0.3,0.9-0.4,1.4-0.4c0.9-0.1,1.9,0,2.9,0.1c-2.5,1.8-5,3.6-7.6,5.5 c2.6,1.9,5.1,3.7,7.6,5.5c0,0.1,0,0.1,0,0.2c-1.1,0-2.3,0-3.4,0c-0.3,0-0.5-0.3-0.8-0.5c-1.5-1.1-3.1-2.2-4.6-3.3 c-0.1-0.1-0.3-0.2-0.5-0.3C234,404.9,234,406.2,234,407.6z" style="fill: rgb(151, 9, 8);"/>
    </g>
  </g>
  <g transform="matrix(0.742744, 0, 0, 0.74048, 56.360157, 12.34951)" style="">
    <g>
      <path class="st4" d="M166.1,383c0-4.8-9.2-8.7-21.2-9.5l1.3,1.9c9.1,0.7,15.9,3.4,15.9,6.5c0,2.5-4.2,4.6-10.4,5.8l-8.2-14.1h-4.1 l-7.1,14.4c-7.4-1-12.5-3.4-12.5-6.1c0-3.3,7.4-6,17.2-6.6l1.4-1.9c-12.8,0.5-22.7,4.6-22.7,9.6c0,3.9,6.1,7.2,14.8,8.8l-2,4.1 h6.1l1.2-3.5c1.7,0.1,3.4,0.2,5.1,0.2c1.9,0,3.8-0.1,5.5-0.2l-1.4-3.9c-1.3,0.1-2.7,0.1-4,0.1s-2.6,0-3.9-0.1l4.4-13l8.7,20.1h6.1 l-2.5-4.3C161.2,389.6,166.1,386.6,166.1,383z" style="fill: rgb(151, 9, 8);"/>
      <polygon class="st4" points="133.7,398.3 133.7,402.2 129.4,402.2 129.4,398.3 126.4,398.3 126.4,408.7 129.4,408.7 129.4,404.7 133.7,404.7 133.7,408.7 136.7,408.7 136.7,398.3 " style="fill: rgb(151, 9, 8);"/>
      <polygon class="st4" points="141.5,406.5 141.5,404.4 145.5,404.4 145.5,402.3 141.5,402.3 141.5,400.5 145.7,400.5 145.7,398.4 141.5,398.4 141.2,398.4 138.5,398.4 138.5,408.6 141.2,408.6 141.5,408.6 145.9,408.6 145.9,406.5 " style="fill: rgb(151, 9, 8);"/>
      <polygon class="st4" points="166.3,398.3 163.2,398.3 161,401.6 158.8,398.3 155.7,398.3 159.6,404.2 159.6,408.7 162.5,408.7 162.5,404.1 " style="fill: rgb(151, 9, 8);"/>
      <path class="st4" d="M154.2,404.1c-0.1-0.1-0.2-0.1-0.3-0.2c1-0.5,1.7-1.5,1.7-2.7c0-1.6-1.3-3-3-3l0,0h-2.5h-0.3h-2.7v10.4h3v-4 c0.3-0.1,1.1-0.2,1.6,0.6c0.6,0.9,1.6,3.4,1.6,3.4h3.2C156.6,408.6,155.3,404.8,154.2,404.1z M151.2,402.8L151.2,402.8h-1v-2.4 h0.9c0.8,0,1.6,0.2,1.6,1.2C152.6,402.5,152,402.7,151.2,402.8z" style="fill: rgb(151, 9, 8);"/>
      <path class="st4" d="M122.3,400.6c1.1,0,2.1,0.4,2.7,1.1l0.2,0.2v-3.1c-1.4-0.5-2.3-0.6-2.9-0.7l0,0c-0.5-0.1-1-0.1-1.2-0.1l0,0 l0,0l0,0l0,0c-2.3,0-5.1,1.5-5.1,5.4c0,3.8,2.7,5.1,5,5.2l0,0c0,0,3,0.1,4.3-0.9v-2.6c-0.9,0.6-1.8,1.1-2.9,1.1 c-1.9,0-3.4-1.3-3.4-2.9C118.9,401.9,120.4,400.6,122.3,400.6z" style="fill: rgb(151, 9, 8);"/>
    </g>
  </g>
  <g transform="matrix(0.742744, 0, 0, 0.74048, 56.360157, 12.34951)" style="">
    <g>
      <path class="st4" d="M115.9,304.3h-3.6v9.4h-2.4v-9.4h-3.5v-1.9h9.6L115.9,304.3L115.9,304.3z" style="fill: rgb(151, 9, 8);"/>
      <path class="st4" d="M126.9,313.7h-2.4v-4.9h-4.7v4.9h-2.4v-11.3h2.4v4.6h4.7v-4.6h2.4V313.7z" style="fill: rgb(151, 9, 8);"/>
      <path class="st4" d="M136,308.8h-4.6v3.1h5.5v1.9H129v-11.3h7.9v1.9h-5.4v2.7h4.6v1.7L136,308.8L136,308.8z" style="fill: rgb(151, 9, 8);"/>
      <path class="st4" d="M151.5,310.5l1.6-8.1h2.4l-2.6,11.3h-2.4l-1.9-7.6l-1.9,7.6h-2.4l-2.6-11.3h2.4l1.6,8.1l1.9-8.1h2 L151.5,310.5z" style="fill: rgb(151, 9, 8);"/>
      <path class="st4" d="M166.5,308.3c0,1.1-0.2,2.1-0.6,2.9c-0.4,0.8-1,1.5-1.8,1.9c-0.8,0.5-1.6,0.7-2.6,0.7s-1.8-0.2-2.6-0.7 s-1.4-1.1-1.8-1.9c-0.4-0.8-0.6-1.8-0.6-2.9v-0.6c0-1.1,0.2-2.1,0.6-2.9c0.4-0.8,1-1.5,1.8-2s1.6-0.7,2.6-0.7s1.8,0.2,2.6,0.7 s1.4,1.1,1.8,2c0.4,0.8,0.6,1.8,0.6,2.9V308.3z M164,307.8c0-1.2-0.2-2.1-0.7-2.7c-0.4-0.6-1.1-0.9-1.9-0.9 c-0.8,0-1.4,0.3-1.9,0.9c-0.4,0.6-0.7,1.5-0.7,2.7v0.6c0,1.2,0.2,2.1,0.7,2.7c0.4,0.6,1.1,1,1.9,1c0.8,0,1.4-0.3,1.9-0.9 c0.4-0.6,0.7-1.5,0.7-2.7V307.8z" style="fill: rgb(151, 9, 8);"/>
      <path class="st4" d="M172.6,309.6h-1.9v4.2h-2.4v-11.3h4.4c1.4,0,2.5,0.3,3.2,0.9c0.8,0.6,1.1,1.4,1.1,2.5c0,0.8-0.2,1.4-0.5,1.9 s-0.9,0.9-1.6,1.2l2.5,4.6v0.1h-2.6L172.6,309.6z M170.7,307.7h2c0.6,0,1.1-0.1,1.4-0.4c0.3-0.3,0.5-0.7,0.5-1.2s-0.2-1-0.5-1.3 s-0.8-0.5-1.4-0.5h-1.9v3.4H170.7z" style="fill: rgb(151, 9, 8);"/>
      <path class="st4" d="M181.2,311.9h5.1v1.9h-7.6v-11.3h2.4v9.4H181.2z" style="fill: rgb(151, 9, 8);"/>
      <path class="st4" d="M187.7,313.7v-11.3h3.6c1,0,2,0.2,2.8,0.7c0.8,0.4,1.5,1.1,1.9,1.9c0.5,0.8,0.7,1.8,0.7,2.8v0.5 c0,1.1-0.2,2-0.7,2.8c-0.4,0.8-1.1,1.5-1.9,1.9c-0.8,0.5-1.7,0.7-2.8,0.7H187.7z M190.1,304.3v7.6h1.2c0.9,0,1.7-0.3,2.2-0.9 s0.8-1.5,0.8-2.6v-0.6c0-1.2-0.2-2-0.7-2.6s-1.2-0.9-2.2-0.9H190.1z" style="fill: rgb(151, 9, 8);"/>
      <path class="st4" d="M199.6,302.9l-0.2,3.1h-1.5v-4.3h1.7V302.9z" style="fill: rgb(151, 9, 8);"/>
      <path class="st4" d="M207.2,310.8c0-0.4-0.2-0.8-0.5-1s-0.9-0.5-1.7-0.7c-0.8-0.3-1.5-0.5-2-0.8c-1.3-0.7-2-1.6-2-2.8 c0-0.6,0.2-1.2,0.5-1.6c0.4-0.5,0.9-0.9,1.5-1.1c0.7-0.3,1.4-0.4,2.3-0.4c0.8,0,1.6,0.1,2.2,0.4c0.7,0.3,1.2,0.7,1.5,1.2 c0.4,0.5,0.5,1.1,0.5,1.8h-2.4c0-0.5-0.2-0.9-0.5-1.2c-0.3-0.3-0.8-0.4-1.4-0.4c-0.6,0-1.1,0.1-1.4,0.4c-0.3,0.2-0.5,0.6-0.5,1 s0.2,0.7,0.6,0.9c0.4,0.2,1,0.5,1.7,0.7c1.4,0.4,2.4,0.9,3,1.5s0.9,1.3,0.9,2.2c0,1-0.4,1.8-1.2,2.3c-0.8,0.6-1.8,0.8-3.1,0.8 c-0.9,0-1.7-0.2-2.5-0.5c-0.7-0.3-1.3-0.8-1.7-1.3c-0.4-0.6-0.6-1.2-0.6-1.9h2.4c0,1.3,0.8,1.9,2.3,1.9c0.6,0,1-0.1,1.3-0.3 C207.1,311.5,207.2,311.2,207.2,310.8z" style="fill: rgb(151, 9, 8);"/>
    </g>
    <g>
      <path class="st4" d="M144.2,330.7h5.1v1.9h-7.6v-11.3h2.4v9.4H144.2z" style="fill: rgb(151, 9, 8);"/>
      <path class="st4" d="M157.3,330.2h-4.2l-0.8,2.3h-2.6l4.4-11.3h2.2l4.4,11.3h-2.6L157.3,330.2z M153.7,328.3h2.9l-1.5-4.2 L153.7,328.3z" style="fill: rgb(151, 9, 8);"/>
      <path class="st4" d="M166.2,328.4h-1.9v4.2h-2.4v-11.3h4.4c1.4,0,2.5,0.3,3.2,0.9c0.8,0.6,1.1,1.4,1.1,2.5c0,0.8-0.2,1.4-0.5,1.9 s-0.9,0.9-1.6,1.2l2.5,4.6v0.1h-2.6L166.2,328.4z M164.2,326.5h2c0.6,0,1.1-0.1,1.4-0.4c0.3-0.3,0.5-0.7,0.5-1.2s-0.2-1-0.5-1.3 s-0.8-0.5-1.4-0.5h-1.9v3.4H164.2z" style="fill: rgb(151, 9, 8);"/>
      <path class="st4" d="M181.7,331.1c-0.4,0.5-1.1,0.9-1.8,1.2c-0.8,0.3-1.7,0.4-2.6,0.4c-1,0-1.9-0.2-2.7-0.6s-1.4-1-1.8-1.9 c-0.4-0.8-0.6-1.8-0.6-2.9v-0.8c0-1.1,0.2-2.1,0.6-2.9c0.4-0.8,1-1.5,1.7-1.9s1.6-0.7,2.6-0.7c1.4,0,2.5,0.3,3.3,1 c0.8,0.6,1.3,1.6,1.4,2.8h-2.4c-0.1-0.6-0.3-1.1-0.7-1.4s-0.9-0.5-1.5-0.5c-0.8,0-1.5,0.3-1.9,0.9s-0.6,1.5-0.7,2.7v0.7 c0,1.2,0.2,2.1,0.7,2.7s1.2,0.9,2.1,0.9c0.9,0,1.6-0.2,1.9-0.6v-2H177v-1.7h4.6L181.7,331.1L181.7,331.1z" style="fill: rgb(151, 9, 8);"/>
      <path class="st4" d="M190.7,327.6H186v3.1h5.5v1.9h-7.9v-11.3h7.9v1.9H186v2.7h4.6L190.7,327.6L190.7,327.6z" style="fill: rgb(151, 9, 8);"/>
      <path class="st4" d="M199,329.6c0-0.4-0.2-0.8-0.5-1s-0.9-0.5-1.7-0.7c-0.8-0.3-1.5-0.5-2-0.8c-1.3-0.7-2-1.6-2-2.8 c0-0.6,0.2-1.2,0.5-1.6c0.4-0.5,0.9-0.9,1.5-1.1c0.7-0.3,1.4-0.4,2.3-0.4c0.8,0,1.6,0.1,2.2,0.4c0.7,0.3,1.2,0.7,1.5,1.2 c0.4,0.5,0.5,1.1,0.5,1.8H199c0-0.5-0.2-0.9-0.5-1.2c-0.3-0.3-0.8-0.4-1.4-0.4c-0.6,0-1.1,0.1-1.4,0.4c-0.3,0.2-0.5,0.6-0.5,1 s0.2,0.7,0.6,0.9c0.4,0.2,1,0.5,1.7,0.7c1.4,0.4,2.4,0.9,3,1.5s0.9,1.3,0.9,2.2c0,1-0.4,1.8-1.2,2.3c-0.8,0.6-1.8,0.8-3.1,0.8 c-0.9,0-1.7-0.2-2.5-0.5c-0.7-0.3-1.3-0.8-1.7-1.3c-0.4-0.6-0.6-1.2-0.6-1.9h2.4c0,1.3,0.8,1.9,2.3,1.9c0.6,0,1-0.1,1.3-0.3 C198.8,330.3,199,330,199,329.6z" style="fill: rgb(151, 9, 8);"/>
      <path class="st4" d="M211.9,323.1h-3.6v9.4h-2.4v-9.4h-3.5v-1.9h9.6v1.9H211.9z" style="fill: rgb(151, 9, 8);"/>
    </g>
    <g>
      <path class="st4" d="M127.9,347.6c-0.1,1.2-0.6,2.2-1.4,2.9s-2,1.1-3.3,1.1c-1.5,0-2.7-0.5-3.6-1.5s-1.3-2.3-1.3-4v-0.7 c0-1.1,0.2-2.1,0.6-2.9s1-1.5,1.7-1.9s1.6-0.7,2.6-0.7c1.4,0,2.4,0.4,3.3,1.1c0.8,0.7,1.3,1.7,1.4,3h-2.4 c-0.1-0.7-0.3-1.3-0.6-1.6c-0.4-0.3-0.9-0.5-1.7-0.5c-0.8,0-1.4,0.3-1.8,0.8c-0.4,0.6-0.6,1.4-0.6,2.6v0.9c0,1.2,0.2,2.1,0.6,2.7 s1,0.8,1.8,0.8c0.7,0,1.3-0.2,1.7-0.5c0.4-0.3,0.6-0.8,0.6-1.5L127.9,347.6L127.9,347.6z" style="fill: rgb(151, 9, 8);"/>
      <path class="st4" d="M139.1,345.9c0,1.1-0.2,2.1-0.6,2.9c-0.4,0.8-1,1.5-1.8,1.9s-1.6,0.7-2.6,0.7s-1.8-0.2-2.6-0.7 s-1.4-1.1-1.8-1.9c-0.4-0.8-0.6-1.8-0.6-2.9v-0.6c0-1.1,0.2-2.1,0.6-2.9c0.4-0.8,1-1.5,1.8-2s1.6-0.7,2.6-0.7s1.8,0.2,2.6,0.7 s1.3,1.1,1.8,2c0.4,0.8,0.6,1.8,0.6,2.9V345.9z M136.7,345.4c0-1.2-0.2-2.1-0.7-2.7s-1.1-0.9-1.9-0.9c-0.8,0-1.4,0.3-1.9,0.9 c-0.4,0.6-0.7,1.5-0.7,2.7v0.6c0,1.2,0.2,2.1,0.7,2.7c0.4,0.6,1.1,1,1.9,1c0.8,0,1.4-0.3,1.9-0.9c0.4-0.6,0.7-1.5,0.7-2.7V345.4z" style="fill: rgb(151, 9, 8);"/>
      <path class="st4" d="M144,340l3,8.2l3-8.2h3.2v11.3h-2.4v-3.1l0.2-5.3l-3.2,8.4h-1.7l-3.2-8.4l0.2,5.3v3.1h-2.4V340H144z" style="fill: rgb(151, 9, 8);"/>
      <path class="st4" d="M157.8,347.3v4h-2.4V340h4.6c0.9,0,1.7,0.2,2.3,0.5c0.7,0.3,1.2,0.8,1.5,1.3c0.4,0.6,0.5,1.2,0.5,2 c0,1.1-0.4,2-1.2,2.6s-1.9,1-3.3,1h-2L157.8,347.3L157.8,347.3z M157.8,345.4h2.2c0.6,0,1.1-0.1,1.5-0.4c0.3-0.3,0.5-0.7,0.5-1.2 c0-0.6-0.2-1-0.5-1.3s-0.8-0.5-1.4-0.5h-2.2v3.4H157.8z" style="fill: rgb(151, 9, 8);"/>
      <path class="st4" d="M172.6,349h-4.2l-0.8,2.3H165l4.4-11.3h2.2l4.4,11.3h-2.6L172.6,349z M169,347.1h2.9l-1.5-4.2L169,347.1z" style="fill: rgb(151, 9, 8);"/>
      <path class="st4" d="M186.7,351.3h-2.4l-4.7-7.5v7.5h-2.4V340h2.4l4.7,7.5V340h2.4V351.3z" style="fill: rgb(151, 9, 8);"/>
      <path class="st4" d="M191.4,351.3H189V340h2.4V351.3z" style="fill: rgb(151, 9, 8);"/>
      <path class="st4" d="M200.7,346.4H196v3.1h5.5v1.9h-7.9v-11.3h7.9v1.9H196v2.7h4.6L200.7,346.4L200.7,346.4z" style="fill: rgb(151, 9, 8);"/>
      <path class="st4" d="M209,348.4c0-0.4-0.2-0.8-0.5-1s-0.9-0.5-1.7-0.7c-0.8-0.3-1.5-0.5-2-0.8c-1.3-0.7-2-1.6-2-2.8 c0-0.6,0.2-1.2,0.5-1.6c0.4-0.5,0.9-0.9,1.5-1.1c0.7-0.3,1.4-0.4,2.3-0.4c0.8,0,1.6,0.1,2.2,0.4c0.7,0.3,1.2,0.7,1.5,1.2 c0.4,0.5,0.5,1.1,0.5,1.8H209c0-0.5-0.2-0.9-0.5-1.2c-0.3-0.3-0.8-0.4-1.4-0.4c-0.6,0-1.1,0.1-1.4,0.4c-0.3,0.2-0.5,0.6-0.5,1 s0.2,0.7,0.6,0.9c0.4,0.2,1,0.5,1.7,0.7c1.4,0.4,2.4,0.9,3,1.5s0.9,1.3,0.9,2.2c0,1-0.4,1.8-1.2,2.3c-0.8,0.6-1.8,0.8-3.1,0.8 c-0.9,0-1.7-0.2-2.5-0.5c-0.7-0.3-1.3-0.8-1.7-1.3c-0.4-0.6-0.6-1.2-0.6-1.9h2.4c0,1.3,0.8,1.9,2.3,1.9c0.6,0,1-0.1,1.3-0.3 C208.8,349.1,209,348.8,209,348.4z" style="fill: rgb(151, 9, 8);"/>
    </g>
    <path class="st4" d="M229.6,301.4c0.2,0.1,0.4,0.1,0.6,0.2c1.2,0.4,2.1,1.5,2.2,2.8c0,0.2,0,0.4,0,0.6c0,2.5,0,5.1,0,7.6 c0,1.4-0.9,2.7-2.2,3.1c-1.2,0.4-2.3,0.2-3.2-0.6c-0.7-0.6-1-1.3-1.1-2.2c0-0.1,0-0.1,0-0.2c0-2.7,0-5.4,0-8.1 c0-0.8,0.3-1.6,0.9-2.2c0.5-0.6,1.1-0.9,1.9-1h0.1C229.1,301.4,229.3,301.4,229.6,301.4z M228.3,308.6c0,0.8,0,1.6,0,2.3 c0,0.5,0,1.1,0,1.6c0,0.6,0.7,1.1,1.3,0.8c0.4-0.2,0.5-0.5,0.5-0.9c0-2.6,0-5.1,0-7.7c0-0.1,0-0.2,0-0.3c-0.1-0.5-0.6-0.8-1.1-0.7 c-0.4,0.1-0.6,0.5-0.6,0.9C228.3,306,228.3,307.3,228.3,308.6z" style="fill: rgb(151, 9, 8);"/>
    <path class="st4" d="M217.9,314.1V314c0-0.9,0-1.7,0-2.6c0-0.5,0-1.1,0-1.6c0-1,0-2,0-3.1c0-1,0-2,0-3c0-0.7,0-1.3,0-2 c0.2,0,5.2-0.1,5.5,0c0,0.8,0,1.6,0,2.4c-0.3,0-0.5,0-0.8,0s-0.6,0-0.8,0c-0.3,0-0.5,0-0.8,0s-0.5,0-0.8,0c0,0.2-0.1,3,0,3.2 c0.7,0,1.4,0,2.1,0c0,0.8,0,1.6,0,2.4c-0.7,0-1.4,0-2.2,0c0,2,0,4,0,6c-0.8,0-1.6,0-2.4,0C217.9,315.2,217.9,314.6,217.9,314.1z" style="fill: rgb(151, 9, 8);"/>
    <path class="st4" d="M261.3,337.1c0-4,0-7.9,0-11.9c0-0.9,0.2-1.7,0.5-2.5s0.8-1.5,1.4-2.1c0.9-0.9,2-1.5,3.3-1.7 c0.4-0.1,0.8-0.1,1.3-0.1c1.8,0,3.7,0,5.5,0c1.2,0,2.4,0.3,3.4,1c1.6,1,2.6,2.5,3,4.3c0.1,0.4,0.1,0.8,0.1,1.3c0,7.9,0,15.8,0,23.7 c0,0.9-0.2,1.8-0.6,2.6c-0.3,0.7-0.8,1.4-1.3,1.9c-1.1,1-2.3,1.7-3.8,1.8c-0.2,0-0.4,0-0.7,0c-1.9,0-3.8,0-5.7,0 c-1.6,0-3-0.6-4.2-1.6c-1.2-1.1-1.9-2.4-2.2-4c0-0.3-0.1-0.5-0.1-0.8C261.3,345,261.3,341,261.3,337.1z M267.4,337.2 c0,3.5,0,7.1,0,10.6c0,0.1,0,0.1,0,0.2c0,0.7,0.6,1.3,1.3,1.3c1.2,0,2.5,0,3.7,0c0.4,0,0.7-0.2,1-0.5c0.2-0.3,0.3-0.6,0.3-0.9 c0-7.1,0-14.2,0-21.3c0-0.1,0-0.3,0-0.4c-0.1-0.6-0.6-1-1.2-1c-1.3,0-2.5,0-3.8,0c-0.4,0-0.7,0.2-1,0.5c-0.2,0.3-0.3,0.6-0.3,0.9 C267.4,330.1,267.4,333.6,267.4,337.2z" style="fill: rgb(151, 9, 8);"/>
    <path class="st4" d="M258.2,337.1c0,3.9,0,7.7,0,11.6c0,1.1-0.2,2.1-0.7,3.1c-0.3,0.6-0.7,1.1-1.1,1.6c-0.5,0.5-1.1,1-1.8,1.3 c-0.9,0.5-1.9,0.7-2.9,0.7c-1.9,0-3.8,0-5.7,0c-1.5,0-2.9-0.5-4.1-1.5c-0.7-0.6-1.2-1.3-1.6-2.1c-0.3-0.7-0.6-1.4-0.7-2.2 c0-0.3-0.1-0.6-0.1-1c0-7.8,0-15.6,0-23.4c0-1.6,0.6-3,1.6-4.3c0.6-0.7,1.2-1.2,2-1.6c0.7-0.4,1.5-0.6,2.4-0.7c0.2,0,0.5,0,0.7,0 c1.8,0,3.5,0,5.3,0c1,0,2,0.2,2.9,0.7c0.7,0.4,1.4,0.9,2,1.5c0.8,0.9,1.4,2,1.6,3.2c0.1,0.4,0.1,0.8,0.1,1.2 C258.2,329.2,258.2,333.1,258.2,337.1z M252,337.2c0-3.6,0-7.2,0-10.8c0-0.7-0.5-1.3-1.3-1.3c-1.2,0-2.4,0-3.6,0 c-0.7,0-1.3,0.6-1.3,1.3c0,7.2,0,14.3,0,21.5c0,0.7,0.5,1.3,1.3,1.3c1.2,0,2.4,0,3.6,0c0.8,0,1.3-0.6,1.3-1.3 C252,344.3,252,340.7,252,337.2z" style="fill: rgb(151, 9, 8);"/>
    <path class="st4" d="M218.3,342.9c2,0,4.1,0,6.1,0c0,0.1,0,0.2,0,0.2c0,1.5,0,3.1,0,4.6c0,0.2,0,0.5,0.1,0.7 c0.2,0.5,0.6,0.7,1.1,0.7c1.1,0,2.2,0,3.3,0c0.7,0,1.3-0.6,1.3-1.3c0-1.1,0-2.2,0-3.3c0-1.6,0-3.1,0-4.7c0-0.4-0.2-0.8-0.5-1.1 c-0.2-0.2-0.5-0.3-0.7-0.3c-0.1,0-0.1,0-0.2,0c-3.5,0-6.9,0-10.4,0c-0.1,0-0.2,0-0.3,0c0-6.6,0-13.3,0-19.9c6.1,0,12.1,0,18.2,0 c0,2.1,0,4.2,0,6.4c-4,0-8,0-11.9,0c0,2.3,0,4.6,0,6.9c0.1,0,0.2,0,0.3,0c1.7,0,3.4,0,5.2,0c0.7,0,1.3,0.1,1.9,0.3 c0.9,0.3,1.6,0.7,2.3,1.3c1.2,1,1.9,2.3,2.2,3.8c0.1,0.4,0.1,0.8,0.1,1.1c0,3.5,0,7,0,10.5c0,1-0.2,1.9-0.7,2.8 c-0.3,0.7-0.8,1.3-1.3,1.8c-1,1-2.3,1.6-3.8,1.8c-0.2,0-0.5,0-0.7,0c-1.7,0-3.5,0-5.2,0c-1.6,0-3.1-0.6-4.3-1.7s-1.9-2.4-2.1-3.9 c0-0.3-0.1-0.5-0.1-0.8c0-1.9,0-3.9,0-5.8C218.3,343.1,218.3,343,218.3,342.9z" style="fill: rgb(151, 9, 8);"/>
    <path class="st4" d="M270.3,315.7c-0.9,0-1.7,0-2.6,0c-0.7-2.2-1.4-4.4-2-6.6l0,0c0,2.2,0,4.4,0,6.6c-0.8,0-1.6,0-2.3,0 c0-0.2-0.1-13.8,0-14.1c0.8,0,1.5,0,2.3,0c0.8,2.5,1.5,4.9,2.3,7.4l0,0c0-2.5,0-4.9,0-7.4c0.2-0.1,2-0.1,2.4,0 C270.3,306.3,270.3,311,270.3,315.7z" style="fill: rgb(151, 9, 8);"/>
    <path class="st4" d="M237.9,315.7c-0.8,0-1.6,0-2.4,0c0-4.7,0-9.4,0-14.1c0,0,0.1,0,0.2,0c1.1,0,2.2,0,3.2,0c0.8,0,1.5,0.3,2.1,0.9 c0.5,0.5,0.9,1.1,1,1.8c0,0.2,0.1,0.4,0.1,0.6c0,0.8,0,1.5,0,2.3c0,0.7-0.1,1.4-0.5,2c-0.2,0.4-0.5,0.7-0.8,1 c0.5,1.8,1.1,3.7,1.6,5.6c-0.8,0-1.6,0-2.4,0c-0.6-2.2-1.2-4.4-1.7-6.7c0.2-0.1,0.3-0.1,0.5-0.2c0.5-0.3,0.9-0.7,1-1.4 c0-0.2,0-0.3,0-0.5c0-0.7,0-1.3,0-2c0-0.5-0.3-0.8-0.7-0.9H239c-0.3,0-0.6,0-1,0C237.9,307.9,237.9,311.8,237.9,315.7z" style="fill: rgb(151, 9, 8);"/>
    <path class="st4" d="M257.9,301.6c0.8,0,1.6,0,2.4,0c0,0.1,0,0.2,0,0.3c0,3.3,0,6.6,0,9.9c0,0.4,0,0.7,0,1.1 c-0.1,1.1-0.7,2-1.6,2.6c-0.5,0.3-1.1,0.5-1.7,0.4c-1.4-0.1-2.5-1-2.9-2.2c-0.1-0.4-0.2-0.7-0.2-1.1c0-3.6,0-7.1,0-10.7 c0-0.1,0-0.2,0-0.3c0.8,0,1.6,0,2.4,0c0,0.1,0,0.2,0,0.3c0,3.4,0,6.8,0,10.3c0,0.1,0,0.3,0,0.4c0,0.5,0.4,0.9,0.9,0.9 c0.4,0,0.9-0.4,0.9-0.8c0-0.1,0-0.1,0-0.2c0-3.5,0-7,0-10.5C257.9,301.8,257.9,301.7,257.9,301.6z" style="fill: rgb(151, 9, 8);"/>
    <path class="st4" d="M273.4,301.6c1.9,0,3.8,0,5.7,0c0,0.2,0.1,2.1,0,2.4c-1.1,0-2.2,0-3.3,0c0,1.1,0,2.2,0,3.2c0.7,0,1.4,0,2.1,0 c0,0.2,0.1,2.2,0,2.4c-0.4,0-0.7,0-1.1,0c-0.3,0-0.7,0-1.1,0c0,1.2,0,2.4,0,3.6c1.1,0,2.2,0,3.3,0c0,0.8,0,1.6,0,2.4 c-1.9,0-3.8,0-5.7,0C273.4,311,273.4,306.3,273.4,301.6z" style="fill: rgb(151, 9, 8);"/>
    <path class="st4" d="M251,301.6c0,0.8,0,1.6,0,2.4c-0.7,0-1.4,0-2.1,0c0,3.9,0,7.8,0,11.6c-0.2,0-2.1,0.1-2.4,0c0-3.9,0-7.7,0-11.6 c-0.2,0-0.5,0-0.7,0s-0.4,0-0.7,0c-0.2,0-0.4,0-0.7,0c-0.1-0.2-0.1-2.1,0-2.4C246.7,301.6,248.9,301.6,251,301.6z" style="fill: rgb(151, 9, 8);"/>
    <g>
      <path class="st4" d="M280.5,301.9c0.5,0,0.9,0.4,0.9,0.8s-0.4,0.8-0.9,0.8s-0.9-0.4-0.9-0.8S280,301.9,280.5,301.9L280.5,301.9z M280.5,302c-0.4,0-0.6,0.3-0.6,0.7c0,0.4,0.3,0.7,0.7,0.7c0.4,0,0.6-0.3,0.6-0.7C281.1,302.3,280.8,302,280.5,302L280.5,302z M280.3,303.1h-0.2v-0.8c0.1,0,0.2,0,0.3,0c0.2,0,0.2,0,0.3,0.1c0.1,0,0.1,0.1,0.1,0.2s-0.1,0.2-0.2,0.2l0,0 c0.1,0,0.1,0.1,0.1,0.2s0,0.2,0.1,0.2h-0.2c0,0,0-0.1-0.1-0.2c0-0.1-0.1-0.1-0.2-0.1h-0.1v0.2L280.3,303.1L280.3,303.1z M280.3,302.7L280.3,302.7c0.2,0,0.3,0,0.3-0.1s-0.1-0.1-0.2-0.1s-0.1,0-0.1,0L280.3,302.7L280.3,302.7z" style="fill: rgb(151, 9, 8);"/>
    </g>
  </g>
  <g transform="matrix(0.742744, 0, 0, 0.74048, 56.360157, 12.34951)" style="">
    <g>
      <path class="st4" d="M10.9,398.5v-15.1h4.3v-6.6H9.8c-2.7,0-4.9,2.2-4.9,4.9v18.7c0,2.7,2.2,4.9,4.9,4.9h5.5v-6.8H10.9z" style="fill: rgb(151, 9, 8);"/>
      <rect x="16.4" y="376.9" class="st4" width="2.3" height="28.5" style="fill: rgb(151, 9, 8);"/>
      <path class="st4" d="M25.3,376.9h-5.4v6.6h4.3v15h-4.3v6.8h5.4c2.7,0,4.9-2.2,4.9-4.9v-18.7C30.2,379,28,376.9,25.3,376.9z" style="fill: rgb(151, 9, 8);"/>
      <g>
        <path class="st4" d="M34.8,390.1c0.3,0.3,0.7,0.6,1.1,0.8c0.4,0.2,0.9,0.3,1.5,0.3c0.3,0,0.5,0,0.8-0.1c0.3,0,0.5-0.1,0.8-0.2 s0.5-0.2,0.7-0.4h0.1l0.1-1.1l-0.3,0.3c-0.1,0.1-0.2,0.2-0.4,0.3c-0.2,0.1-0.4,0.2-0.7,0.3c-0.3,0.1-0.5,0.1-0.9,0.1 c-0.5,0-0.9-0.1-1.3-0.4c-0.4-0.2-0.7-0.6-0.9-1.1s-0.3-1-0.3-1.6s0.1-1.1,0.3-1.6s0.5-0.9,0.9-1.1c0.4-0.3,0.8-0.4,1.4-0.4 c0.3,0,0.5,0.1,0.8,0.2c0.2,0.1,0.4,0.2,0.6,0.3c0.2,0.1,0.3,0.2,0.3,0.3l0.1,0.1l0.3-0.1v-0.1c0.1-0.3,0.1-0.6,0.2-0.8V384 l-0.1-0.1c-0.2-0.1-0.4-0.2-0.7-0.3c-0.2-0.1-0.5-0.1-0.7-0.2c-0.3,0-0.5-0.1-0.7-0.1c-0.7,0-1.4,0.1-1.9,0.4 c-0.6,0.3-1,0.7-1.4,1.3c-0.3,0.6-0.5,1.3-0.5,2c0,0.6,0.1,1.1,0.2,1.6C34.2,389.3,34.4,389.7,34.8,390.1z" style="fill: rgb(151, 9, 8);"/>
        <path class="st4" d="M41.5,391H42v-3.5c0.1,0,0.3,0,0.5,0h0.2c0.2,0,0.4,0,0.6,0c0.5,0,0.7,0,1.1,0c0.2,0,0.4,0,0.6,0h0.2 c0.2,0,0.4,0,0.5,0v3.6h0.2c0,0,0.1,0,0.2,0h0.1c0.1,0,0.2,0,0.3,0H47v-7.4h-0.2c-0.1,0-0.2,0-0.3,0s-0.2,0-0.3,0h-0.4v3 c-1.2,0-1.7,0-1.9,0s-0.7,0-1.9,0v-2.8v-0.2h-0.4c-0.1,0-0.2,0-0.3,0h-0.4v7.4h0.4C41.3,391,41.4,391,41.5,391z" style="fill: rgb(151, 9, 8);"/>
        <path class="st4" d="M48.7,391L48.7,391c0.2,0,0.3,0,0.4,0h0.4v-7.4h-0.4c-0.1,0-0.2,0-0.3,0h-0.4v7.4H48.7 C48.6,391,48.6,391,48.7,391z" style="fill: rgb(151, 9, 8);"/>
        <path class="st4" d="M55.9,391c0.2,0,0.3,0,0.4,0h0.6l-3-7.4v-0.1h-0.4l-3.2,7.5h0.3h0.1h0.1c0,0,0.1,0,0.2,0h0.4v-0.1 c0.1-0.3,0.2-0.6,0.3-0.9s0.2-0.6,0.3-0.9s0.2-0.6,0.3-0.9h2.3c0.3,0.8,0.7,1.7,1,2.7v0.1L55.9,391z M54.2,387.5h-1.7l0.8-2.1 L54.2,387.5z" style="fill: rgb(151, 9, 8);"/>
        <path class="st4" d="M60.8,383.8c-0.4-0.1-0.9-0.2-1.5-0.2h-1.9v7.4h0.2c0,0,0.1,0,0.2,0h0.1c0.1,0,0.2,0,0.3,0h0.5v-3.2h0.6 c0.2,0,0.4,0,0.6-0.1c0.4-0.1,0.7-0.2,1-0.3c0.3-0.1,0.5-0.3,0.7-0.4c0.2-0.2,0.3-0.4,0.4-0.7c0.1-0.2,0.1-0.5,0.1-0.9 c0-0.5-0.1-0.8-0.3-1.1C61.5,384.2,61.2,384,60.8,383.8z M58.6,384.4c0.1,0,0.3,0,0.5,0c0.4,0,0.6,0,0.7,0c0.2,0,0.4,0.1,0.5,0.2 s0.2,0.2,0.3,0.4c0.1,0.2,0.1,0.4,0.1,0.6c0,0.4-0.1,0.8-0.4,1c-0.2,0.3-0.6,0.4-1,0.5c-0.2,0-0.4,0-0.5,0s-0.2,0-0.3,0v-2.7 H58.6z" style="fill: rgb(151, 9, 8);"/>
        <path class="st4" d="M67.8,391H68c0.1,0,0.1,0,0.2,0h0.1c0.1,0,0.2,0,0.3,0h0.5v-7.2v-0.2h-0.2c-0.1,0-0.2,0-0.3,0 c-0.1,0-0.2,0-0.3,0h-0.4v3c-1.2,0-1.7,0-1.9,0c-0.2,0-0.7,0-1.9,0v-3h-0.4c-0.1,0-0.2,0-0.3,0H63v7.4h0.4c0.2,0,0.2,0,0.3,0h0.5 v-3.5c0.1,0,0.3,0,0.5,0h0.2c0.2,0,0.4,0,0.6,0s0.4,0,0.6,0s0.3,0,0.6,0c0.2,0,0.4,0,0.6,0h0.2c0.2,0,0.4,0,0.5,0v3.5L67.8,391 L67.8,391z" style="fill: rgb(151, 9, 8);"/>
        <path class="st4" d="M76.1,383.7c-0.1,0-0.1,0-0.2,0h-0.3v4c0,0.9-0.2,1.5-0.5,2s-0.8,0.7-1.5,0.7c-0.4,0-0.7-0.1-1-0.2 c-0.2-0.1-0.4-0.3-0.6-0.5s-0.3-0.5-0.3-0.8c-0.1-0.3-0.1-0.7-0.1-1.2v-4.1h-0.4c-0.1,0-0.2,0-0.3,0h-0.4v4.3 c0,0.5,0.1,1,0.1,1.4c0.1,0.4,0.3,0.8,0.6,1.1c0.2,0.2,0.4,0.3,0.6,0.4s0.5,0.2,0.7,0.3c0.3,0.1,0.6,0.1,0.9,0.1 c0.6,0,1.1-0.1,1.6-0.4c0.5-0.2,0.8-0.6,1.1-1.1c0.2-0.5,0.4-1.1,0.4-1.8v-4.1v-0.2L76.1,383.7z" style="fill: rgb(151, 9, 8);"/>
        <path class="st4" d="M77.6,391L77.6,391c0.1,0,0.2,0,0.3,0h0.4v-0.1c0.1-0.3,0.2-0.6,0.3-0.9c0.1-0.3,0.2-0.6,0.3-0.9 c0.1-0.3,0.2-0.6,0.3-0.9h2.3c0.3,0.8,0.7,1.7,1,2.7v0.1h0.4c0.2,0,0.3,0,0.4,0h0.6l-3-7.4v-0.1h-0.4l-3.2,7.5L77.6,391 C77.5,391,77.5,391,77.6,391z M79.5,387.5l0.8-2.1l0.8,2.1H79.5z" style="fill: rgb(151, 9, 8);"/>
        <path class="st4" d="M37.7,392.7c-0.2-0.1-0.4-0.1-0.6-0.1c-0.8-0.1-1.5,0-2.1,0.3c-0.5,0.2-0.8,0.6-1.1,1.1s-0.4,1-0.4,1.6 c0,0.5,0.1,0.9,0.2,1.2c0.1,0.4,0.3,0.7,0.6,1c0.2,0.3,0.5,0.5,0.9,0.6c0.3,0.1,0.7,0.2,1.2,0.2c0.2,0,0.4,0,0.6,0 c0.2,0,0.4-0.1,0.6-0.2c0.2-0.1,0.4-0.2,0.5-0.3l0.1-0.1l0.1-1.1l-0.4,0.3c-0.1,0.1-0.2,0.1-0.3,0.2s-0.3,0.2-0.5,0.2 c-0.2,0.1-0.4,0.1-0.6,0.1c-0.4,0-0.7-0.1-0.9-0.3c-0.3-0.2-0.5-0.5-0.6-0.8c-0.2-0.4-0.2-0.8-0.2-1.3c0-0.4,0.1-0.8,0.2-1.2 c0.1-0.4,0.4-0.6,0.6-0.9c0.3-0.2,0.6-0.3,1-0.3c0.2,0,0.4,0,0.6,0.1c0.2,0.1,0.3,0.2,0.4,0.3c0.1,0.1,0.2,0.2,0.3,0.2l0.1,0.1 l0.3-0.1v-0.1c0-0.2,0.1-0.4,0.1-0.6l0.1-0.2l-0.2-0.1C38.1,392.8,37.9,392.7,37.7,392.7z" style="fill: rgb(151, 9, 8);"/>
        <path class="st4" d="M43.6,393.2c-0.3-0.2-0.6-0.4-1-0.5c-0.7-0.2-1.6-0.2-2.3,0c-0.4,0.1-0.7,0.4-0.9,0.6 c-0.3,0.3-0.5,0.6-0.6,1s-0.2,0.8-0.2,1.3c0,0.4,0.1,0.9,0.2,1.2c0.1,0.4,0.3,0.7,0.6,1s0.6,0.5,0.9,0.6c0.4,0.1,0.8,0.2,1.2,0.2 c0.6,0,1.1-0.1,1.6-0.4s0.8-0.6,1.1-1.1s0.4-1,0.4-1.6c0-0.5-0.1-0.9-0.3-1.3C44.1,393.7,43.9,393.4,43.6,393.2z M39.7,395.6 c0-0.4,0-0.7,0.1-1s0.2-0.6,0.4-0.8c0.2-0.2,0.4-0.4,0.6-0.5c0.2-0.1,0.5-0.2,0.8-0.2c0.2,0,0.3,0,0.5,0.1s0.3,0.1,0.5,0.2 c0.1,0.1,0.3,0.2,0.4,0.4c0.1,0.1,0.2,0.3,0.3,0.5s0.1,0.3,0.1,0.5s0,0.4,0,0.6c0,0.3,0,0.5-0.1,0.8s-0.2,0.6-0.4,0.8 c-0.2,0.2-0.3,0.4-0.6,0.6c-0.4,0.3-1,0.3-1.5,0.1c-0.2-0.1-0.4-0.2-0.6-0.4c-0.2-0.2-0.3-0.4-0.4-0.7 C39.7,396.3,39.7,396,39.7,395.6z" style="fill: rgb(151, 9, 8);"/>
        <path class="st4" d="M50.9,396.9c0-0.3-0.1-0.7-0.1-1.2c-0.1-0.5-0.1-1-0.2-1.5l-0.2-1.6H50l-0.1,0.1c-0.2,0.5-0.4,0.9-0.6,1.2 l-0.9,1.9c-0.2,0.3-0.3,0.6-0.4,0.9c-0.1-0.2-0.2-0.4-0.3-0.7c-0.2-0.3-0.4-0.7-0.6-1.1c-0.2-0.4-0.4-0.7-0.5-0.9 c-0.1-0.2-0.3-0.6-0.5-1.1l-0.1-0.1h-0.5v0.2c0,0.3-0.1,0.7-0.2,1.4c-0.1,0.6-0.2,1.4-0.3,2.3s-0.2,1.5-0.3,1.8v0.3l0.4-0.1h0.1 h0.4v-0.2c0-0.2,0-0.4,0-0.7c0-0.3,0-0.6,0.1-1.1c0-0.4,0.1-0.8,0.1-1.2c0-0.2,0-0.3,0.1-0.5l0.2,0.4c0.2,0.3,0.3,0.7,0.5,1.1 s0.3,0.7,0.5,1.1l0.5,1H48v-0.1c0.1-0.3,0.3-0.7,0.5-1.1s0.4-0.9,0.6-1.3c0.2-0.3,0.3-0.6,0.5-1c0,0.1,0,0.1,0,0.2l0.1,0.9 c0,0.3,0.1,0.6,0.1,1.1c0,0.4,0.1,0.9,0.1,1.3v0.2h0.2h0.1h0.1c0,0,0.1,0,0.2,0H51v-0.2C51,397.7,50.9,397.3,50.9,396.9z" style="fill: rgb(151, 9, 8);"/>
        <path class="st4" d="M54.4,392.7c-0.3-0.1-0.7-0.1-1.2-0.1h-1.5v5.9h0.2H52h0.1c0,0,0.1,0,0.2,0h0.4V396h0.4c0.2,0,0.3,0,0.5,0 c0.3-0.1,0.5-0.1,0.7-0.2s0.4-0.2,0.5-0.4c0.2-0.2,0.3-0.3,0.3-0.5c0.1-0.2,0.1-0.4,0.1-0.7c0-0.4-0.1-0.7-0.2-0.9 C54.9,393,54.7,392.8,54.4,392.7z M52.7,393.3c0.1,0,0.2,0,0.3,0c0.3,0,0.5,0,0.6,0c0.2,0,0.3,0.1,0.4,0.1 c0.1,0.1,0.2,0.2,0.2,0.3c0,0.1,0.1,0.3,0.1,0.4c0,0.3-0.1,0.6-0.3,0.8c-0.2,0.2-0.4,0.3-0.7,0.3c-0.2,0-0.4,0-0.5,0L52.7,393.3 L52.7,393.3z" style="fill: rgb(151, 9, 8);"/>
        <path class="st4" d="M60.5,393.2c-0.3-0.2-0.6-0.4-1-0.5c-0.7-0.2-1.6-0.2-2.3,0c-0.4,0.1-0.7,0.4-0.9,0.6 c-0.3,0.3-0.5,0.6-0.6,1s-0.2,0.8-0.2,1.3c0,0.4,0.1,0.9,0.2,1.2c0.1,0.4,0.3,0.7,0.6,1s0.6,0.5,0.9,0.6c0.4,0.1,0.8,0.2,1.2,0.2 c0.6,0,1.1-0.1,1.6-0.4s0.8-0.6,1.1-1.1s0.4-1,0.4-1.6c0-0.5-0.1-0.9-0.3-1.3C61,393.7,60.8,393.4,60.5,393.2z M56.6,395.6 c0-0.4,0-0.7,0.1-1s0.2-0.6,0.4-0.8c0.2-0.2,0.4-0.4,0.6-0.5c0.2-0.1,0.5-0.2,0.8-0.2c0.2,0,0.3,0,0.5,0.1s0.3,0.1,0.5,0.2 c0.1,0.1,0.3,0.2,0.4,0.4c0.1,0.1,0.2,0.3,0.3,0.5s0.1,0.3,0.1,0.5s0,0.4,0,0.6c0,0.3,0,0.5-0.1,0.8s-0.2,0.6-0.4,0.8 c-0.2,0.2-0.3,0.4-0.6,0.6c-0.4,0.3-1,0.3-1.5,0.1c-0.2-0.1-0.4-0.2-0.6-0.4c-0.2-0.2-0.3-0.4-0.4-0.7 C56.7,396.3,56.6,396,56.6,395.6z" style="fill: rgb(151, 9, 8);"/>
        <path class="st4" d="M66.5,392.6L66.5,392.6h-0.4v3.9l-3.3-3.9h-0.6v5.9l0.4-0.1c0,0,0,0,0.1,0H63v-4.1l2.9,3.5 c0.2,0.2,0.3,0.3,0.4,0.5l0.1,0.1h0.5v-5.9h-0.2C66.5,392.6,66.5,392.6,66.5,392.6z" style="fill: rgb(151, 9, 8);"/>
        <path class="st4" d="M70.7,397.6c-0.2,0-0.5,0.1-0.7,0.1c-0.5,0-0.9,0-1.1,0v-2h1c0,0,0.1,0,0.2,0s0.2,0,0.2,0c0.1,0,0.1,0,0.2,0 h0.2v-0.3c0,0,0,0,0-0.1c0,0,0,0,0-0.1v-0.4h-0.2c-0.1,0-0.2,0-0.2,0h-0.2c-0.1,0-0.1,0-0.2,0h-1v-1.6H70c0.2,0,0.5,0,0.6,0.1 l0.3,0.1V393v-0.1c0,0,0,0,0-0.1v-0.3h-3v5.9h2.9H71v-0.3V398l0.1-0.5L70.7,397.6z" style="fill: rgb(151, 9, 8);"/>
        <path class="st4" d="M75.9,392.6L75.9,392.6h-0.4v3.9l-3.3-3.9h-0.6v5.9H72c0,0,0,0,0.1,0h0.3v-4.1l2.9,3.5 c0.2,0.2,0.3,0.3,0.4,0.5l0.1,0.1h0.5v-5.9h-0.2C76,392.6,76,392.6,75.9,392.6z" style="fill: rgb(151, 9, 8);"/>
        <path class="st4" d="M81,393L81,393c0-0.1,0-0.2,0-0.2v-0.2h-4.3v0.4c0,0,0,0,0,0.1c0,0,0,0,0,0.1v0.4h0.2c0.5-0.1,1-0.1,1.4-0.1 v4.9v0.2h0.3c0.1,0,0.1,0,0.3,0h0.4v-5.1c0.2,0,0.4,0,0.6,0c0.3,0,0.5,0,0.7,0.1h0.2L81,393C81,393.1,81,393.1,81,393z" style="fill: rgb(151, 9, 8);"/>
        <path class="st4" d="M84.2,395.6c-0.2-0.2-0.5-0.4-0.9-0.6s-0.7-0.3-0.8-0.5c-0.1-0.1-0.2-0.3-0.2-0.6c0-0.1,0-0.3,0.1-0.4 s0.2-0.2,0.3-0.3c0.2-0.1,0.6-0.1,0.8,0.1c0.1,0.1,0.2,0.2,0.3,0.4v0.1h0.4v-0.1c0.1-0.4,0.2-0.6,0.2-0.6V393l-0.1-0.1 c-0.1-0.1-0.3-0.3-0.6-0.3c-0.2-0.1-0.4-0.1-0.6-0.1c-0.5,0-1,0.2-1.3,0.4c-0.4,0.3-0.5,0.7-0.5,1.3c0,0.5,0.1,0.8,0.4,1 c0.2,0.2,0.5,0.4,0.9,0.6s0.6,0.3,0.8,0.4c0.1,0.1,0.2,0.3,0.2,0.6c0,0.2,0,0.3-0.1,0.5s-0.2,0.3-0.3,0.4c-0.3,0.2-0.7,0.1-1,0 c-0.2-0.1-0.3-0.3-0.5-0.6l-0.1-0.1h-0.4v0.2c0,0.3-0.1,0.5-0.1,0.7v0.1l0.1,0.1c0.1,0.2,0.4,0.3,0.6,0.4 c0.3,0.1,0.5,0.1,0.7,0.1c0.3,0,0.5,0,0.8-0.1c0.2-0.1,0.5-0.2,0.7-0.4c0.2-0.2,0.3-0.4,0.4-0.6s0.2-0.5,0.2-0.8 C84.5,396.1,84.4,395.8,84.2,395.6z" style="fill: rgb(151, 9, 8);"/>
      </g>
    </g>
  </g>
  <g transform="matrix(0.742744, 0, 0, 0.74048, 56.360157, 12.34951)" style="">
    <g>
      <path class="st4" d="M293.7,381.2c-5.1,0-9.2,4.4-9.2,9.9s4.1,9.9,9.2,9.9s9.2-4.4,9.2-9.9C302.9,385.6,298.8,381.2,293.7,381.2z M293.8,382.5c3.2,0,5.9,2,7.2,4.9c-0.2,0.7-0.7,2.6-2.2,3.7c0,0-0.2-2.3-1-3.9s-3.2-4.5-7-4C291.7,382.7,292.7,382.5,293.8,382.5 z M292.2,387.9c0,0,1-2.1,1.5-2.7c1.9,2.1,3.1,5.3,1.7,9c0,0-1.1,2.4-1.6,2.8C292,394.9,290.8,391.7,292.2,387.9z M290.6,383.2 c0.6,0.1,1.5,0.4,2.7,1.5c0.1,0.1,0.3,0.3,0.4,0.5c-0.6,0.1-2.3,0.6-3.4,1.2c-1.2,0.8-2,1.6-2.4,2.3c-0.5,0.7-1.2,2.3-1.3,4.2 c0,1,0,1.5,0,1.8c-0.5-1.1-0.7-2.3-0.7-3.6C285.8,387.6,287.7,384.6,290.6,383.2z M286.6,394.8c0.1-0.6,0.7-2.7,2.3-3.8 c0,0,0.2,2.3,0.9,3.9c0.8,1.6,3.1,4.5,6.9,4.2c-0.9,0.4-1.9,0.6-2.9,0.6C290.6,399.8,287.8,397.8,286.6,394.8z M297,399.1 c-0.6-0.1-1.5-0.4-2.7-1.6c-0.1-0.1-0.3-0.3-0.4-0.4c0.1,0,2.3-0.5,3.5-1.3s1.9-1.6,2.4-2.3c0.5-0.7,1.2-2.3,1.2-4.2 c0-0.8,0-1.3,0-1.6c0.5,1.1,0.7,2.3,0.7,3.5C301.8,394.7,299.8,397.8,297,399.1z" style="fill: rgb(151, 9, 8);"/>
      <g>
        <path class="st4" d="M305.1,399.9v-3.7h1.2c0.3,0,0.5,0,0.6,0.1c0.2,0,0.4,0.1,0.5,0.3c0.2,0.2,0.3,0.4,0.4,0.6s0.1,0.5,0.1,0.9 c0,0.3,0,0.5-0.1,0.7s-0.1,0.4-0.2,0.5s-0.2,0.3-0.3,0.3c-0.1,0.1-0.3,0.1-0.4,0.2c-0.2,0-0.3,0.1-0.6,0.1H305.1z M305.6,399.5 h0.7c0.2,0,0.4,0,0.5-0.1c0.1,0,0.2-0.1,0.3-0.2c0.1-0.1,0.2-0.3,0.3-0.5c0.1-0.2,0.1-0.4,0.1-0.7c0-0.4-0.1-0.7-0.2-0.9 c-0.1-0.2-0.3-0.3-0.4-0.4s-0.3-0.1-0.6-0.1h-0.7L305.6,399.5L305.6,399.5z" style="fill: rgb(151, 9, 8);"/>
        <path class="st4" d="M308.5,398.1c0-0.6,0.2-1.1,0.5-1.4s0.7-0.5,1.2-0.5c0.3,0,0.6,0.1,0.9,0.2c0.3,0.2,0.5,0.4,0.6,0.7 c0.1,0.3,0.2,0.6,0.2,1s-0.1,0.7-0.2,1s-0.3,0.5-0.6,0.7c-0.3,0.2-0.5,0.2-0.8,0.2s-0.6-0.1-0.9-0.3c-0.3-0.2-0.5-0.4-0.6-0.7 C308.5,398.7,308.5,398.4,308.5,398.1z M308.9,398.1c0,0.4,0.1,0.8,0.3,1.1c0.2,0.3,0.5,0.4,0.8,0.4s0.6-0.1,0.9-0.4 c0.2-0.3,0.3-0.6,0.3-1.1c0-0.3,0-0.6-0.1-0.8c-0.1-0.2-0.2-0.4-0.4-0.5c-0.2-0.1-0.4-0.2-0.6-0.2c-0.3,0-0.6,0.1-0.8,0.4 C309,397.2,308.9,397.6,308.9,398.1z" style="fill: rgb(151, 9, 8);"/>
        <path class="st4" d="M312.4,399.9v-3.7h0.5l1.8,2.9v-2.9h0.4v3.7h-0.5l-1.8-2.9v2.9H312.4z" style="fill: rgb(151, 9, 8);"/>
        <path class="st4" d="M317.5,398.4V398h1.5v1.4c-0.2,0.2-0.5,0.3-0.7,0.4s-0.5,0.1-0.7,0.1c-0.3,0-0.6-0.1-0.9-0.2 c-0.3-0.2-0.5-0.4-0.6-0.7s-0.2-0.6-0.2-1s0.1-0.7,0.2-1s0.3-0.5,0.6-0.7c0.3-0.2,0.6-0.2,0.9-0.2s0.5,0,0.7,0.1s0.4,0.2,0.5,0.4 c0.1,0.2,0.2,0.4,0.3,0.6l-0.4,0.1c-0.1-0.2-0.1-0.3-0.2-0.4s-0.2-0.2-0.3-0.3c-0.1-0.1-0.3-0.1-0.5-0.1s-0.4,0-0.5,0.1 c-0.2,0.1-0.3,0.2-0.4,0.3c-0.1,0.1-0.2,0.2-0.2,0.4c-0.1,0.2-0.1,0.5-0.1,0.7c0,0.3,0.1,0.6,0.2,0.8s0.3,0.4,0.5,0.5 s0.4,0.2,0.6,0.2s0.4,0,0.6-0.1s0.3-0.2,0.4-0.3v-0.7L317.5,398.4L317.5,398.4z" style="fill: rgb(151, 9, 8);"/>
        <path class="st4" d="M319.6,399.9v-3.7h2.3v0.4H320v1.1h1.6v0.4H320v1.7h-0.4V399.9z" style="fill: rgb(151, 9, 8);"/>
        <path class="st4" d="M322.6,399.9v-3.7h2.5v0.4h-2v1.1h1.9v0.4h-2v1.3h2.1v0.4h-2.5V399.9z" style="fill: rgb(151, 9, 8);"/>
        <path class="st4" d="M325.8,399.9v-3.7h0.5l1.8,2.9v-2.9h0.4v3.7H328l-1.8-2.9v2.9H325.8z" style="fill: rgb(151, 9, 8);"/>
        <path class="st4" d="M330.9,398.4V398h1.5v1.4c-0.2,0.2-0.5,0.3-0.7,0.4s-0.5,0.1-0.7,0.1c-0.3,0-0.6-0.1-0.9-0.2 c-0.3-0.2-0.5-0.4-0.6-0.7c-0.1-0.3-0.2-0.6-0.2-1s0.1-0.7,0.2-1s0.3-0.5,0.6-0.7c0.3-0.2,0.6-0.2,0.9-0.2s0.5,0,0.7,0.1 s0.4,0.2,0.5,0.4c0.1,0.2,0.2,0.4,0.3,0.6l-0.4,0.1c-0.1-0.2-0.1-0.3-0.2-0.4s-0.2-0.2-0.3-0.3c-0.1-0.1-0.3-0.1-0.5-0.1 s-0.4,0-0.5,0.1c-0.2,0.1-0.3,0.2-0.4,0.3c-0.1,0.1-0.2,0.2-0.2,0.4c-0.1,0.2-0.1,0.5-0.1,0.7c0,0.3,0.1,0.6,0.2,0.8 c0.1,0.2,0.3,0.4,0.5,0.5s0.4,0.2,0.6,0.2s0.4,0,0.6-0.1s0.3-0.2,0.4-0.3v-0.7L330.9,398.4L330.9,398.4z" style="fill: rgb(151, 9, 8);"/>
        <path class="st4" d="M334.4,399.9v-3.7h0.7l0.8,2.6c0.1,0.2,0.1,0.4,0.2,0.5c0-0.1,0.1-0.3,0.2-0.6l0.8-2.6h0.6v3.7h-0.4v-3.1 l-1,3.1h-0.4l-1-3.1v3.1h-0.5L334.4,399.9L334.4,399.9z" style="fill: rgb(151, 9, 8);"/>
        <path class="st4" d="M338.3,398.1c0-0.6,0.2-1.1,0.5-1.4s0.7-0.5,1.2-0.5c0.3,0,0.6,0.1,0.9,0.2c0.3,0.2,0.5,0.4,0.6,0.7 c0.1,0.3,0.2,0.6,0.2,1s-0.1,0.7-0.2,1s-0.3,0.5-0.6,0.7c-0.3,0.2-0.5,0.2-0.8,0.2s-0.6-0.1-0.9-0.3c-0.3-0.2-0.5-0.4-0.6-0.7 C338.4,398.7,338.3,398.4,338.3,398.1z M338.8,398.1c0,0.4,0.1,0.8,0.3,1.1c0.2,0.3,0.5,0.4,0.8,0.4s0.6-0.1,0.9-0.4 c0.2-0.3,0.3-0.6,0.3-1.1c0-0.3,0-0.6-0.1-0.8c-0.1-0.2-0.2-0.4-0.4-0.5c-0.2-0.1-0.4-0.2-0.6-0.2c-0.3,0-0.6,0.1-0.8,0.4 C338.9,397.2,338.8,397.6,338.8,398.1z" style="fill: rgb(151, 9, 8);"/>
        <path class="st4" d="M343.1,399.9v-3.3H342v-0.4h2.7v0.4h-1.1v3.3H343.1z" style="fill: rgb(151, 9, 8);"/>
        <path class="st4" d="M344.9,398.1c0-0.6,0.2-1.1,0.5-1.4s0.7-0.5,1.2-0.5c0.3,0,0.6,0.1,0.9,0.2c0.3,0.2,0.5,0.4,0.6,0.7 c0.1,0.3,0.2,0.6,0.2,1s-0.1,0.7-0.2,1s-0.3,0.5-0.6,0.7c-0.3,0.2-0.5,0.2-0.8,0.2s-0.6-0.1-0.9-0.3c-0.3-0.2-0.5-0.4-0.6-0.7 C345,398.7,344.9,398.4,344.9,398.1z M345.4,398.1c0,0.4,0.1,0.8,0.3,1.1c0.2,0.3,0.5,0.4,0.8,0.4s0.6-0.1,0.9-0.4 c0.2-0.3,0.3-0.6,0.3-1.1c0-0.3,0-0.6-0.1-0.8c-0.1-0.2-0.2-0.4-0.4-0.5c-0.2-0.1-0.4-0.2-0.6-0.2c-0.3,0-0.6,0.1-0.8,0.4 C345.5,397.2,345.4,397.6,345.4,398.1z" style="fill: rgb(151, 9, 8);"/>
        <path class="st4" d="M348.8,399.9v-3.7h1.5c0.3,0,0.5,0,0.7,0.1s0.3,0.2,0.4,0.4c0.1,0.2,0.1,0.4,0.1,0.6c0,0.3-0.1,0.5-0.2,0.7 c-0.2,0.2-0.4,0.3-0.7,0.3c0.1,0.1,0.2,0.1,0.3,0.2c0.1,0.1,0.3,0.3,0.4,0.5l0.6,1h-0.6l-0.5-0.8c-0.1-0.2-0.2-0.4-0.3-0.5 c-0.1-0.1-0.2-0.2-0.2-0.2c-0.1,0-0.1-0.1-0.2-0.1s-0.1,0-0.3,0h-0.5v1.6h-0.5L348.8,399.9L348.8,399.9z M349.3,397.8h1 c0.2,0,0.4,0,0.5-0.1c0.1,0,0.2-0.1,0.3-0.2c0.1-0.1,0.1-0.2,0.1-0.3c0-0.2-0.1-0.3-0.2-0.4s-0.3-0.2-0.6-0.2h-1.1L349.3,397.8 L349.3,397.8z" style="fill: rgb(151, 9, 8);"/>
        <path class="st4" d="M356.1,398.6l0.5,0.1c-0.1,0.4-0.3,0.7-0.5,0.9c-0.2,0.2-0.6,0.3-0.9,0.3c-0.4,0-0.7-0.1-0.9-0.2 c-0.2-0.2-0.4-0.4-0.5-0.7c-0.1-0.3-0.2-0.6-0.2-1s0.1-0.7,0.2-1s0.3-0.5,0.6-0.7c0.3-0.1,0.5-0.2,0.8-0.2s0.6,0.1,0.9,0.3 c0.2,0.2,0.4,0.5,0.5,0.8l-0.5,0.1c-0.1-0.3-0.2-0.5-0.3-0.6c-0.2-0.1-0.3-0.2-0.6-0.2c-0.3,0-0.5,0.1-0.7,0.2s-0.3,0.3-0.4,0.5 s-0.1,0.5-0.1,0.7c0,0.3,0,0.6,0.1,0.8c0.1,0.2,0.2,0.4,0.4,0.5c0.2,0.1,0.4,0.2,0.6,0.2c0.3,0,0.5-0.1,0.7-0.2 C356,399.1,356.1,398.9,356.1,398.6z" style="fill: rgb(151, 9, 8);"/>
        <path class="st4" d="M357,398.1c0-0.6,0.2-1.1,0.5-1.4s0.7-0.5,1.2-0.5c0.3,0,0.6,0.1,0.9,0.2c0.3,0.2,0.5,0.4,0.6,0.7 c0.1,0.3,0.2,0.6,0.2,1s-0.1,0.7-0.2,1s-0.3,0.5-0.6,0.7c-0.3,0.2-0.5,0.2-0.8,0.2s-0.6-0.1-0.9-0.3c-0.3-0.2-0.5-0.4-0.6-0.7 C357.1,398.7,357,398.4,357,398.1z M357.5,398.1c0,0.4,0.1,0.8,0.3,1.1c0.2,0.3,0.5,0.4,0.8,0.4s0.6-0.1,0.9-0.4 c0.2-0.3,0.3-0.6,0.3-1.1c0-0.3,0-0.6-0.1-0.8c-0.1-0.2-0.2-0.4-0.4-0.5c-0.2-0.1-0.4-0.2-0.6-0.2c-0.3,0-0.6,0.1-0.8,0.4 C357.6,397.2,357.5,397.6,357.5,398.1z" style="fill: rgb(151, 9, 8);"/>
        <path class="st4" d="M360.9,399.9v-3.7h1.5c0.3,0,0.5,0,0.7,0.1s0.3,0.2,0.4,0.4c0.1,0.2,0.1,0.4,0.1,0.6c0,0.3-0.1,0.5-0.2,0.7 c-0.2,0.2-0.4,0.3-0.7,0.3c0.1,0.1,0.2,0.1,0.3,0.2c0.1,0.1,0.3,0.3,0.4,0.5l0.6,1h-0.6l-0.5-0.8c-0.1-0.2-0.2-0.4-0.3-0.5 c-0.1-0.1-0.2-0.2-0.2-0.2c-0.1,0-0.1-0.1-0.2-0.1s-0.1,0-0.3,0h-0.5v1.6h-0.5L360.9,399.9L360.9,399.9z M361.4,397.8h1 c0.2,0,0.4,0,0.5-0.1c0.1,0,0.2-0.1,0.3-0.2c0.1-0.1,0.1-0.2,0.1-0.3c0-0.2-0.1-0.3-0.2-0.4s-0.3-0.2-0.6-0.2h-1.1L361.4,397.8 L361.4,397.8z" style="fill: rgb(151, 9, 8);"/>
        <path class="st4" d="M364.4,399.9v-3.7h1.3c0.2,0,0.4,0,0.5,0c0.2,0,0.3,0.1,0.4,0.2s0.2,0.2,0.3,0.4c0.1,0.2,0.1,0.3,0.1,0.5 c0,0.3-0.1,0.6-0.3,0.8c-0.2,0.2-0.5,0.3-1,0.3h-0.9v1.5L364.4,399.9L364.4,399.9z M364.9,398h0.9c0.3,0,0.5-0.1,0.6-0.2 s0.2-0.3,0.2-0.5s0-0.3-0.1-0.4s-0.2-0.2-0.3-0.2c-0.1,0-0.2,0-0.4,0h-0.9L364.9,398L364.9,398z" style="fill: rgb(151, 9, 8);"/>
        <path class="st4" d="M367.5,398.1c0-0.6,0.2-1.1,0.5-1.4s0.7-0.5,1.2-0.5c0.3,0,0.6,0.1,0.9,0.2c0.3,0.2,0.5,0.4,0.6,0.7 c0.1,0.3,0.2,0.6,0.2,1s-0.1,0.7-0.2,1s-0.3,0.5-0.6,0.7c-0.3,0.2-0.5,0.2-0.8,0.2s-0.6-0.1-0.9-0.3c-0.3-0.2-0.5-0.4-0.6-0.7 C367.6,398.7,367.5,398.4,367.5,398.1z M368,398.1c0,0.4,0.1,0.8,0.3,1.1c0.2,0.3,0.5,0.4,0.8,0.4s0.6-0.1,0.9-0.4 c0.2-0.3,0.3-0.6,0.3-1.1c0-0.3,0-0.6-0.1-0.8c-0.1-0.2-0.2-0.4-0.4-0.5c-0.2-0.1-0.4-0.2-0.6-0.2c-0.3,0-0.6,0.1-0.8,0.4 C368.1,397.2,368,397.6,368,398.1z" style="fill: rgb(151, 9, 8);"/>
        <path class="st4" d="M371.4,399.9v-3.7h1.5c0.3,0,0.5,0,0.7,0.1s0.3,0.2,0.4,0.4c0.1,0.2,0.1,0.4,0.1,0.6c0,0.3-0.1,0.5-0.2,0.7 c-0.2,0.2-0.4,0.3-0.7,0.3c0.1,0.1,0.2,0.1,0.3,0.2c0.1,0.1,0.3,0.3,0.4,0.5l0.6,1h-0.6l-0.5-0.8c-0.1-0.2-0.2-0.4-0.3-0.5 c-0.1-0.1-0.2-0.2-0.2-0.2c-0.1,0-0.1-0.1-0.2-0.1s-0.1,0-0.3,0h-0.5v1.6h-0.5L371.4,399.9L371.4,399.9z M371.9,397.8h1 c0.2,0,0.4,0,0.5-0.1c0.1,0,0.2-0.1,0.3-0.2c0.1-0.1,0.1-0.2,0.1-0.3c0-0.2-0.1-0.3-0.2-0.4s-0.3-0.2-0.6-0.2h-1.1L371.9,397.8 L371.9,397.8z" style="fill: rgb(151, 9, 8);"/>
        <path class="st4" d="M374.5,399.9l1.3-3.7h0.5l1.4,3.7h-0.5l-0.4-1.1h-1.4l-0.4,1.1H374.5z M375.5,398.4h1.2l-0.4-1 c-0.1-0.3-0.2-0.6-0.2-0.8c0,0.2-0.1,0.5-0.2,0.7L375.5,398.4z" style="fill: rgb(151, 9, 8);"/>
        <path class="st4" d="M378.7,399.9v-3.3h-1.1v-0.4h2.7v0.4h-1.1v3.3H378.7z" style="fill: rgb(151, 9, 8);"/>
        <path class="st4" d="M380.8,399.9v-3.7h0.5v3.7H380.8z" style="fill: rgb(151, 9, 8);"/>
        <path class="st4" d="M381.9,398.1c0-0.6,0.2-1.1,0.5-1.4s0.7-0.5,1.2-0.5c0.3,0,0.6,0.1,0.9,0.2c0.3,0.2,0.5,0.4,0.6,0.7 c0.1,0.3,0.2,0.6,0.2,1s-0.1,0.7-0.2,1s-0.3,0.5-0.6,0.7c-0.3,0.2-0.5,0.2-0.8,0.2s-0.6-0.1-0.9-0.3c-0.3-0.2-0.5-0.4-0.6-0.7 C382,398.7,381.9,398.4,381.9,398.1z M382.4,398.1c0,0.4,0.1,0.8,0.3,1.1c0.2,0.3,0.5,0.4,0.8,0.4s0.6-0.1,0.9-0.4 c0.2-0.3,0.3-0.6,0.3-1.1c0-0.3,0-0.6-0.1-0.8c-0.1-0.2-0.2-0.4-0.4-0.5c-0.2-0.1-0.4-0.2-0.6-0.2c-0.3,0-0.6,0.1-0.8,0.4 C382.5,397.2,382.4,397.6,382.4,398.1z" style="fill: rgb(151, 9, 8);"/>
        <path class="st4" d="M385.8,399.9v-3.7h0.5l1.8,2.9v-2.9h0.4v3.7H388l-1.8-2.9v2.9H385.8z" style="fill: rgb(151, 9, 8);"/>
      </g>
      <polygon class="st4" points="333.7,384 333.7,389.7 328.7,384 326.4,384 326.4,393 328.7,393 328.7,387.2 333.7,393 335.9,393 335.9,384 " style="fill: rgb(151, 9, 8);"/>
      <polygon class="st4" points="375.5,384 375.5,389.7 370.4,384 368.2,384 368.2,393 370.4,393 370.4,387.2 375.5,393 377.7,393 377.7,384 " style="fill: rgb(151, 9, 8);"/>
      <polygon class="st4" points="356.4,387.2 351.4,387.2 351.1,387.2 349.1,387.2 349.1,393 351.4,393 351.4,389.7 356.4,389.7 " style="fill: rgb(151, 9, 8);"/>
      <path class="st4" d="M349.1,386.1h7.3V384h-5.7c-0.9,0-1.6,0.7-1.6,1.6L349.1,386.1L349.1,386.1z" style="fill: rgb(151, 9, 8);"/>
      <polygon class="st4" points="366.7,386.1 366.7,384 361.2,384 358.5,384 358.5,386.1 358.5,387.3 358.5,389.7 358.5,390.9 358.5,392.2 358.5,393 366.7,393 366.7,390.9 361.2,390.9 361.2,389.7 366.7,389.7 366.7,387.3 361.2,387.3 361.2,386.1 " style="fill: rgb(151, 9, 8);"/>
      <path class="st4" d="M322.4,384h-4.5c-1.4,0-2.5,1.1-2.5,2.5v4c0,1.4,1.1,2.5,2.5,2.5h4.5c1.4,0,2.5-1.1,2.5-2.5v-4 C324.9,385.2,323.8,384,322.4,384z M323,390.3c0,0.4-0.3,0.7-0.7,0.7h-4.2c-0.4,0-0.7-0.3-0.7-0.7v-3.5c0-0.4,0.3-0.7,0.7-0.7h4.2 c0.4,0,0.7,0.3,0.7,0.7V390.3z" style="fill: rgb(151, 9, 8);"/>
      <path class="st4" d="M340.7,386.1h6.3V384h-6.6c0,0-0.7,0-1.2,0.4c-1.2,0.7-1.1,2.3-1.1,2.3v3.6c0,0,0,0,0,0.1l0,0l0,0 c0,0.5,0.2,2.3,2.3,2.5h4.5h0.6h1.5v-3.3V389v-2h-5.2v2.5h3.1v1.2h-4.1c0,0-0.4-0.1-0.4-0.7v-3.3 C340.3,386.3,340.6,386.1,340.7,386.1z" style="fill: rgb(151, 9, 8);"/>
      <path class="st4" d="M382.3,386.1h6.3V384H382c0,0-0.7,0-1.2,0.4c-1.2,0.7-1.1,2.3-1.1,2.3v3.6c0,0,0,0,0,0.1l0,0l0,0 c0,0.5,0.2,2.3,2.3,2.5h4.5h0.6h1.5v-3.3V389v-2h-5.2v2.5h3.1v1.2h-4.1c0,0-0.4-0.1-0.4-0.7v-3.3 C381.9,386.3,382.1,386.1,382.3,386.1z" style="fill: rgb(151, 9, 8);"/>
      <path class="st4" d="M311.8,384c-0.2,0-0.3,0-0.5,0h-6.1v2.1h6.3c0,0,0.4,0.1,0.4,0.8v3.5c0,0,0.1,0.5-0.5,0.6h-4.1v-3.8h-2v5.9 h1.8h0.3h4.1c0,0,2.6,0.3,2.7-2.6v-3.6C314.1,386.8,314.3,384.1,311.8,384z" style="fill: rgb(151, 9, 8);"/>
    </g>
  </g>
  <g transform="matrix(0.742744, 0, 0, 0.74048, 56.360157, 12.34951)" style="">
    <path class="st2" d="M322.8,567.1c0.6,0.1,1.3,0.1,1.9,0.2c2.8,0.4,5.4,1,7.7,2.5c0.6,0.4,1.2,0.9,1.7,1.4c1.4,1.6,1.4,3.5,0,5.1 c-1.1,1.3-2.6,2.1-4.2,2.7c-2.2,0.8-4.5,1.3-6.9,1.4c-3,0.2-5.9,0-8.8-0.7c-1.2-0.3-2.4-0.8-3.6-1.3c-1.8-0.8-3.4-2-3.9-4v-1.3 c0.6-1.9,2-3.1,3.8-4c2.1-1.1,4.4-1.6,6.7-1.9c0.6-0.1,1.3-0.2,1.9-0.2L322.8,567.1L322.8,567.1z" style="fill: rgb(255, 255, 255);"/>
    <path class="st5" d="M322.1,577.4c0.9-0.1,1.8-0.2,2.7-0.4c0.7-0.1,1.5-0.4,2.1-0.8c0.9-0.6,0.9-1.6-0.1-2.1 c-0.4-0.2-0.8-0.4-1.3-0.5c-1.2-0.2-2.4-0.4-3.6-0.7c-0.8-0.1-1.5-0.3-2.3-0.4c-0.3-0.1-0.6-0.2-0.6-0.5s0.3-0.5,0.6-0.6 c0.4-0.1,0.9-0.2,1.3-0.2c1.1,0,2.1,0.1,2.9,0.9c0.1,0,0.2,0.1,0.2,0.1c1-0.1,1.9-0.3,3-0.5c-1.4-1.4-3.1-1.4-4.9-1.6v-0.8h-2.2 v0.8c-0.6,0.1-1.2,0.1-1.7,0.2c-0.8,0.1-1.7,0.3-2.4,0.8c-0.9,0.7-0.9,1.5,0.1,2.1c0.5,0.3,1,0.5,1.5,0.6c1.4,0.3,2.9,0.5,4.4,0.7 c0.5,0.1,1,0.2,1.5,0.3c0.5,0.2,0.5,0.6,0.1,0.9c-0.2,0.1-0.4,0.2-0.6,0.2c-1.2,0.2-2.5,0.2-3.7-0.1c-0.3-0.1-0.7-0.2-0.8-0.5 c-0.3-0.4-0.6-0.4-1-0.3c-0.2,0-0.3,0-0.5,0.1c-0.7,0.1-1.5,0.1-2.2,0.2c0.6,0.9,1.5,1.3,2.5,1.5s2,0.3,3,0.5v0.9h2.2v-0.8 L322.1,577.4L322.1,577.4z" style="fill: rgb(219, 170, 39);"/>
    <path class="st6" d="M306.8,595.7c0.1-0.2,0.1-0.4,0.2-0.6c1,1.1,2.2,1.9,3.5,2.5c2.1,1,4.3,1.5,6.5,1.8c1.4,0.2,2.9,0.3,4.3,0.2 c1,0,1.6,0.2,2.3,0.9c0.8,0.8,1.7,1.4,2.6,2.1c-0.5,0.1-1,0.2-1.6,0.2c-2,0.3-4.1,0.3-6.1,0.1c-3.1-0.3-6.2-0.9-8.9-2.5 c-1.2-0.7-2.2-1.6-2.7-2.8c-0.1-0.2-0.2-0.5-0.3-0.7v-1.2H306.8z" style="fill: rgb(223, 178, 41);"/>
    <path class="st5" d="M306.8,577.8c0.1-0.2,0.1-0.4,0.2-0.6c1,1.1,2.2,1.9,3.5,2.5c2.1,1,4.3,1.6,6.5,1.8c1.5,0.2,2.9,0.3,4.4,0.2 c1.4,0,2.8-0.2,4.3-0.4c0.1,0,0.2,0,0.3,0c-0.7,0.5-1.4,1-2,1.6c-0.7,0.6-1.2,1.3-1.8,2c-0.1,0.1-0.3,0.2-0.4,0.2 c-3.1,0.1-6.1-0.3-9.1-1.3c-1.6-0.5-3.1-1.3-4.4-2.4c-0.7-0.7-1.2-1.5-1.5-2.4V577.8z" style="fill: rgb(219, 170, 39);"/>
    <path class="st2" d="M306.8,591.2c0.1-0.2,0.1-0.4,0.2-0.6c1,1.1,2.2,1.9,3.6,2.5c2.1,1,4.3,1.5,6.6,1.8c1,0.1,2.1,0.2,3.1,0.3 c0.5,1.1,1.1,2.2,1.6,3.3c0,0,0,0-0.1,0c-3.1,0.1-6.2-0.3-9.2-1.3c-1.6-0.6-3.1-1.3-4.3-2.4c-0.7-0.7-1.2-1.5-1.5-2.4L306.8,591.2 L306.8,591.2z" style="fill: rgb(255, 255, 255);"/>
    <path class="st2" d="M306.8,582.3c0.1-0.2,0.1-0.4,0.2-0.6c1,1.1,2.2,1.9,3.5,2.5c2.1,1,4.2,1.5,6.5,1.8c1.3,0.1,2.7,0.2,4,0.3 c0.1,0,0.1,0,0.2,0c0,0.1-0.1,0.1-0.1,0.2c-0.4,1-0.7,1.9-1,2.9c-0.1,0.2-0.1,0.3-0.3,0.3c-3.3-0.2-6.4-0.7-9.3-2.2 c-1.2-0.6-2.3-1.3-3-2.4c-0.3-0.5-0.5-1-0.7-1.5L306.8,582.3L306.8,582.3z" style="fill: rgb(255, 255, 255);"/>
    <path class="st5" d="M306.8,586.7c0.1-0.2,0.1-0.4,0.2-0.6c0.9,1,2,1.7,3.1,2.3c1.9,1,3.9,1.5,6,1.9c1.2,0.2,2.4,0.3,3.6,0.4 c0.1,1.1,0.1,2.2,0.2,3.4c-0.4,0-0.9,0-1.4-0.1c-2.6-0.2-5-0.7-7.4-1.7c-1.3-0.6-2.6-1.3-3.5-2.5c-0.4-0.5-0.7-1.2-1-1.8v-1.3 L306.8,586.7L306.8,586.7z" style="fill: rgb(219, 170, 39);"/>
    <path class="st2" d="M344.7,591.8c0.1,6.2-5.4,11.4-12.2,11.2c-6.3-0.1-11.6-5.1-11.6-11.3s5.5-11.4,12.2-11.2 C339.5,580.7,344.8,585.8,344.7,591.8" style="fill: rgb(255, 255, 255);"/>
    <path class="st5" d="M333.7,598.8c0.1,0,0.2,0,0.3-0.1c2.4-0.3,3.8-1.6,4-3.9c0.1-1.2-0.2-2.4-1.2-3.3c-0.6-0.5-1.4-0.8-2.1-1.2 c-0.9-0.4-1.8-0.7-2.8-1.1c-0.6-0.3-0.8-0.7-0.8-1.4c0.1-0.6,0.4-1.1,1.1-1.3c0.8-0.3,1.7,0,2.3,0.7c0.2,0.3,0.4,0.7,0.7,1.1 c0.7-0.3,1.5-0.6,2.2-0.9c0.1,0,0.1-0.2,0.1-0.3c-0.5-1.3-1.3-2.3-2.7-2.8c-0.4-0.1-0.7-0.2-1.1-0.3v-1.5h-1.8v1.6 c-0.8,0.1-1.5,0.3-2.1,0.7c-1.1,0.8-1.6,1.8-1.7,3.1c-0.1,1.6,0.5,2.8,1.9,3.7c0.5,0.3,1,0.5,1.6,0.7c0.8,0.3,1.6,0.6,2.5,1 c0.6,0.3,0.9,0.8,0.8,1.4c0,0.6-0.3,1.1-0.9,1.3c-1.4,0.6-3.1-0.1-3.5-1.5c0-0.2-0.1-0.3-0.2-0.5c-0.9,0.2-1.8,0.4-2.7,0.7 c0.5,2.2,1.9,3.6,4.4,3.9v2h1.8L333.7,598.8L333.7,598.8z" style="fill: rgb(219, 170, 39);"/>
    <path class="st2" d="M335,579.6c-1.1,0-2.1-0.1-3.2-0.1c1.2-0.6,2.3-1.3,3.2-2.3C335.3,578,335.3,578.8,335,579.6" style="fill: rgb(255, 255, 255);"/>
  </g>
  <g transform="matrix(0.742744, 0, 0, 0.74048, 56.360157, 12.34951)" style="">
    <path class="st1" d="M45.2,584.2l3.7-7.9h4L47,587.5v6.4h-3.7v-6.4l-5.8-11.2h4L45.2,584.2z" style="fill: rgb(229, 170, 65);"/>
    <path class="st1" d="M68.5,585.5c0,1.7-0.3,3.3-0.9,4.6s-1.5,2.3-2.6,3s-2.4,1.1-3.9,1.1s-2.8-0.4-3.9-1.1c-1.1-0.7-2-1.7-2.7-3 c-0.6-1.3-0.9-2.8-1-4.5v-0.9c0-1.7,0.3-3.3,0.9-4.6c0.6-1.3,1.5-2.3,2.6-3s2.4-1.1,3.9-1.1s2.8,0.4,3.9,1.1s2,1.7,2.6,3 s0.9,2.8,0.9,4.6v0.8L68.5,585.5L68.5,585.5z M64.8,584.7c0-1.8-0.3-3.2-1-4.2s-1.6-1.4-2.8-1.4s-2.2,0.5-2.8,1.4s-1,2.3-1,4.2v0.9 c0,1.8,0.3,3.2,1,4.2s1.6,1.5,2.9,1.5c1.2,0,2.2-0.5,2.8-1.4c0.7-1,1-2.3,1-4.2v-1H64.8z" style="fill: rgb(229, 170, 65);"/>
    <path class="st1" d="M84.5,576.3v11.6c0,1.9-0.6,3.5-1.8,4.6s-2.9,1.7-4.9,1.7c-2.1,0-3.7-0.5-4.9-1.6S71,589.9,71,588v-11.7h3.6 v11.6c0,1.2,0.3,2,0.8,2.5c0.6,0.5,1.3,0.8,2.3,0.8c2,0,3.1-1.1,3.1-3.2v-11.7L84.5,576.3L84.5,576.3z" style="fill: rgb(229, 170, 65);"/>
    <path class="st1" d="M94,587.5h-2.9v6.4h-3.6v-17.6H94c2.1,0,3.7,0.5,4.8,1.4c1.1,0.9,1.7,2.2,1.7,3.9c0,1.2-0.3,2.2-0.8,3 s-1.3,1.4-2.4,1.9l3.8,7.2v0.2h-3.9L94,587.5z M91.1,584.5H94c0.9,0,1.6-0.2,2.1-0.7s0.8-1.1,0.8-1.9c0-0.8-0.2-1.5-0.7-2 s-1.2-0.7-2.2-0.7h-2.9C91.1,579.2,91.1,584.5,91.1,584.5z" style="fill: rgb(229, 170, 65);"/>
    <path class="st1" d="M109.4,593.9v-17.6h6.2c2.1,0,3.8,0.4,4.9,1.2s1.7,2,1.7,3.6c0,0.9-0.2,1.6-0.7,2.3c-0.4,0.7-1.1,1.1-1.8,1.4 c0.9,0.2,1.6,0.7,2.1,1.4s0.8,1.5,0.8,2.5c0,1.7-0.5,3-1.6,3.8c-1.1,0.9-2.6,1.3-4.6,1.3L109.4,593.9L109.4,593.9z M113.1,583.7 h2.7c1.8,0,2.7-0.8,2.7-2.2c0-0.8-0.2-1.4-0.7-1.7c-0.5-0.4-1.2-0.5-2.2-0.5h-2.5V583.7z M113.1,586.3v4.8h3.1c0.9,0,1.5-0.2,2-0.6 s0.7-1,0.7-1.7c0-1.6-0.8-2.4-2.5-2.5H113.1z" style="fill: rgb(229, 170, 65);"/>
    <path class="st1" d="M135.2,590.3h-6.4l-1.2,3.6h-3.9l6.6-17.6h3.4l6.6,17.6h-3.9L135.2,590.3z M129.8,587.4h4.4l-2.2-6.6 L129.8,587.4z" style="fill: rgb(229, 170, 65);"/>
    <path class="st1" d="M156.2,593.9h-3.6l-7.1-11.6v11.6h-3.6v-17.6h3.6l7.1,11.6v-11.6h3.6V593.9z" style="fill: rgb(229, 170, 65);"/>
    <path class="st1" d="M164.9,586.9l-1.9,2v5h-3.6v-17.6h3.6v8l1.6-2.2l4.5-5.8h4.5l-6.3,7.8l6.4,9.8h-4.3L164.9,586.9z" style="fill: rgb(229, 170, 65);"/>
    <path class="st1" d="M191.2,590.3h-6.4l-1.2,3.6h-3.9l6.6-17.6h3.4l6.6,17.6h-3.9L191.2,590.3z M185.8,587.4h4.4l-2.2-6.6 L185.8,587.4z" style="fill: rgb(229, 170, 65);"/>
    <path class="st1" d="M211.5,588.1c-0.1,1.9-0.8,3.4-2.1,4.5s-2.9,1.6-5,1.6c-2.3,0-4-0.8-5.3-2.3s-1.9-3.6-1.9-6.3v-1.1 c0-1.7,0.3-3.2,0.9-4.5c0.6-1.3,1.4-2.3,2.6-3c1.1-0.7,2.4-1,3.9-1c2,0,3.7,0.5,4.9,1.6s2,2.6,2.2,4.6h-3.6c-0.1-1.1-0.4-2-0.9-2.5 s-1.4-0.8-2.5-0.8c-1.2,0-2.1,0.4-2.7,1.3c-0.6,0.9-0.9,2.2-0.9,4v1.3c0,1.9,0.3,3.3,0.9,4.2c0.6,0.9,1.5,1.3,2.7,1.3 c1.1,0,2-0.3,2.5-0.8c0.6-0.5,0.9-1.3,0.9-2.4h3.4L211.5,588.1L211.5,588.1z" style="fill: rgb(229, 170, 65);"/>
    <path class="st1" d="M227.7,588.1c-0.1,1.9-0.8,3.4-2.1,4.5s-2.9,1.6-5,1.6c-2.3,0-4-0.8-5.3-2.3s-1.9-3.6-1.9-6.3v-1.1 c0-1.7,0.3-3.2,0.9-4.5c0.6-1.3,1.4-2.3,2.6-3c1.1-0.7,2.4-1,3.9-1c2,0,3.7,0.5,4.9,1.6s2,2.6,2.2,4.6h-3.6c-0.1-1.1-0.4-2-0.9-2.5 s-1.4-0.8-2.5-0.8c-1.2,0-2.1,0.4-2.7,1.3c-0.6,0.9-0.9,2.2-0.9,4v1.3c0,1.9,0.3,3.3,0.9,4.2c0.6,0.9,1.5,1.3,2.7,1.3 c1.1,0,2-0.3,2.5-0.8c0.6-0.5,0.9-1.3,0.9-2.4h3.4L227.7,588.1L227.7,588.1z" style="fill: rgb(229, 170, 65);"/>
    <path class="st1" d="M244.6,585.5c0,1.7-0.3,3.3-0.9,4.6c-0.6,1.3-1.5,2.3-2.6,3s-2.4,1.1-3.9,1.1s-2.8-0.4-3.9-1.1 c-1.1-0.7-2-1.7-2.7-3c-0.6-1.3-0.9-2.8-1-4.5v-0.9c0-1.7,0.3-3.3,0.9-4.6c0.6-1.3,1.5-2.3,2.6-3s2.4-1.1,3.9-1.1s2.8,0.4,3.9,1.1 s2,1.7,2.6,3s0.9,2.8,0.9,4.6v0.8L244.6,585.5L244.6,585.5z M240.9,584.7c0-1.8-0.3-3.2-1-4.2s-1.6-1.4-2.8-1.4s-2.2,0.5-2.8,1.4 s-1,2.3-1,4.2v0.9c0,1.8,0.3,3.2,1,4.2s1.6,1.5,2.9,1.5c1.2,0,2.2-0.5,2.8-1.4c0.7-1,1-2.3,1-4.2L240.9,584.7L240.9,584.7z" style="fill: rgb(229, 170, 65);"/>
    <path class="st1" d="M260.5,576.3v11.6c0,1.9-0.6,3.5-1.8,4.6s-2.9,1.7-4.9,1.7c-2.1,0-3.7-0.5-4.9-1.6s-1.8-2.6-1.9-4.5v-11.7h3.6 V588c0,1.2,0.3,2,0.8,2.5c0.6,0.5,1.3,0.8,2.3,0.8c2,0,3.1-1.1,3.1-3.2v-11.7L260.5,576.3L260.5,576.3z" style="fill: rgb(229, 170, 65);"/>
    <path class="st1" d="M277.8,593.9h-3.6l-7.1-11.6v11.6h-3.6v-17.6h3.6l7.1,11.6v-11.6h3.6V593.9z" style="fill: rgb(229, 170, 65);"/>
    <path class="st1" d="M293.9,579.3h-5.4V594h-3.6v-14.7h-5.3v-2.9h14.3V579.3z" style="fill: rgb(229, 170, 65);"/>
  </g>
  <g transform="matrix(0.742744, 0, 0, 0.74048, 56.360157, 12.34951)" style="">
    <path class="st1" d="M61.5,490.9h-6.4l-1.2,3.6H50l6.6-17.6H60l6.6,17.6h-3.9L61.5,490.9z M56.1,488h4.4l-2.2-6.6L56.1,488z" style="fill: rgb(229, 170, 65);"/>
    <path class="st1" d="M82.5,494.5h-3.6L71.8,483v11.6h-3.6V477h3.6l7.1,11.6V477h3.6V494.5z" style="fill: rgb(229, 170, 65);"/>
    <path class="st1" d="M85.7,494.5v-17.6h5.4c1.5,0,2.9,0.3,4.2,1c1.2,0.7,2.2,1.7,2.9,3c0.7,1.3,1,2.7,1,4.4v0.8 c0,1.6-0.3,3.1-1,4.4s-1.6,2.3-2.8,3c-1.2,0.7-2.6,1.1-4.1,1.1L85.7,494.5L85.7,494.5z M89.3,479.9v11.8h1.8c1.4,0,2.5-0.5,3.3-1.4 s1.1-2.3,1.1-4v-0.9c0-1.8-0.4-3.1-1.1-4.1c-0.7-0.9-1.8-1.4-3.3-1.4H89.3z" style="fill: rgb(229, 170, 65);"/>
    <path class="st1" d="M120.5,479.9h-5.4v14.7h-3.6v-14.7h-5.3V477h14.3V479.9z" style="fill: rgb(229, 170, 65);"/>
    <path class="st1" d="M136.9,494.5h-3.6V487h-7.1v7.5h-3.6v-17.6h3.6v7.1h7.1v-7.1h3.6V494.5z" style="fill: rgb(229, 170, 65);"/>
    <path class="st1" d="M150.6,486.9h-7v4.7h8.2v2.9H140v-17.6h11.8v2.9h-8.2v4.2h7V486.9z" style="fill: rgb(229, 170, 65);"/>
    <path class="st1" d="M160,484.9l3.7-7.9h4l-5.8,11.2v6.4h-3.7v-6.4l-5.8-11.2h4L160,484.9z" style="fill: rgb(229, 170, 65);"/>
    <path class="st1" d="M179.1,488.3v6.2h-3.6v-17.6h6.9c1.3,0,2.5,0.2,3.5,0.7s1.8,1.2,2.3,2.1s0.8,1.9,0.8,3c0,1.7-0.6,3.1-1.8,4.1 s-2.8,1.5-4.9,1.5L179.1,488.3L179.1,488.3z M179.1,485.4h3.2c1,0,1.7-0.2,2.2-0.7s0.8-1.1,0.8-1.9c0-0.9-0.3-1.6-0.8-2.1 s-1.2-0.8-2.1-0.8h-3.3L179.1,485.4L179.1,485.4z" style="fill: rgb(229, 170, 65);"/>
    <path class="st1" d="M199.2,490.9h-6.4l-1.2,3.6h-3.9l6.6-17.6h3.4l6.6,17.6h-3.9L199.2,490.9z M193.8,488h4.4l-2.2-6.6L193.8,488z " style="fill: rgb(229, 170, 65);"/>
    <path class="st1" d="M210.2,484.9l3.7-7.9h4l-5.8,11.2v6.4h-3.7v-6.4l-5.8-11.2h4L210.2,484.9z" style="fill: rgb(229, 170, 65);"/>
    <path class="st1" d="M231.7,484.9l3.7-7.9h4l-5.8,11.2v6.4h-3.7v-6.4l-5.8-11.2h4L231.7,484.9z" style="fill: rgb(229, 170, 65);"/>
    <path class="st1" d="M255,486.1c0,1.7-0.3,3.3-0.9,4.6c-0.6,1.3-1.5,2.3-2.6,3s-2.4,1.1-3.9,1.1s-2.8-0.4-3.9-1.1 c-1.1-0.7-2-1.7-2.7-3c-0.6-1.3-0.9-2.8-1-4.5v-0.9c0-1.7,0.3-3.3,0.9-4.6c0.6-1.3,1.5-2.3,2.6-3s2.4-1.1,3.9-1.1s2.8,0.4,3.9,1.1 s2,1.7,2.6,3s0.9,2.8,0.9,4.6v0.8H255z M251.3,485.3c0-1.8-0.3-3.2-1-4.2s-1.6-1.4-2.8-1.4s-2.2,0.5-2.8,1.4s-1,2.3-1,4.2v0.9 c0,1.8,0.3,3.2,1,4.2s1.6,1.5,2.9,1.5c1.2,0,2.2-0.5,2.8-1.4c0.7-1,1-2.3,1-4.2L251.3,485.3L251.3,485.3z" style="fill: rgb(229, 170, 65);"/>
    <path class="st1" d="M271,476.9v11.6c0,1.9-0.6,3.5-1.8,4.6s-2.9,1.7-4.9,1.7c-2.1,0-3.7-0.5-4.9-1.6s-1.8-2.6-1.9-4.5V477h3.6 v11.6c0,1.2,0.3,2,0.8,2.5c0.6,0.5,1.3,0.8,2.3,0.8c2,0,3.1-1.1,3.1-3.2V477L271,476.9L271,476.9z" style="fill: rgb(229, 170, 65);"/>
    <path class="st1" d="M286.6,488.1h-2.9v6.4h-3.6v-17.6h6.5c2.1,0,3.7,0.5,4.8,1.4c1.1,0.9,1.7,2.2,1.7,3.9c0,1.2-0.3,2.2-0.8,3 s-1.3,1.4-2.4,1.9l3.8,7.2v0.2h-3.9L286.6,488.1z M283.7,485.2h2.9c0.9,0,1.6-0.2,2.1-0.7s0.8-1.1,0.8-1.9s-0.2-1.5-0.7-2 s-1.2-0.7-2.2-0.7h-2.9L283.7,485.2L283.7,485.2z" style="fill: rgb(229, 170, 65);"/>
    <path class="st1" d="M306.5,486.9h-7v4.7h8.2v2.9h-11.8v-17.6h11.8v2.9h-8.2v4.2h7V486.9z" style="fill: rgb(229, 170, 65);"/>
    <path class="st1" d="M324.2,494.5h-3.6l-7.1-11.6v11.6h-3.6v-17.6h3.6l7.1,11.6v-11.6h3.6V494.5z" style="fill: rgb(229, 170, 65);"/>
    <path class="st1" d="M340.2,479.9h-5.4v14.7h-3.6v-14.7h-5.3V477h14.3V479.9z" style="fill: rgb(229, 170, 65);"/>
  </g>
  <text style="fill: rgb(229, 170, 65); font-family: Arial, sans-serif; font-size: 29.7309px; font-weight: 700; line-height: 51.7058px; white-space: pre;" transform="matrix(0.622935, 0, 0, 0.57284, -70.325287, 110.819138)" x="250" y="136">SEAGATE</text>
</svg>